<svg width="350" height="284" viewBox="0 0 350 284" fill="none" xmlns="http://www.w3.org/2000/svg">
<g clip-path="url(#clip0_29_27)">
<path d="M37.6785 99.2539C37.3912 102.615 35.8821 105.945 33.764 108.62C23.7478 121.251 4.55419 121.289 3.34765 140.741C3.09485 144.803 4.20563 149.099 7.07835 151.977C8.80964 153.698 11.0235 154.821 12.9195 156.354C28.3173 168.735 11.8202 189.916 4.81848 201.627C0.766036 208.36 0.846472 218.113 4.15201 225.149C9.25012 235.994 17.6959 235.071 28.2139 236.446C34.7483 240.279 38.2722 245.866 40.8002 252.691C43.5848 260.194 48.7097 263.705 55.2021 268.472C71.1667 280.21 91.3523 286.016 111.078 283.368C125.672 281.413 139.518 275.24 154.192 274.029C165.093 273.128 176.025 275.01 186.983 274.795C214.538 274.297 241.473 259.696 256.936 236.856C264.14 226.226 269.71 213.288 281.258 207.686C292.423 202.267 306.45 205.298 317.263 199.22C327.018 193.74 331.745 181.956 332.181 170.774C332.859 153.315 324.287 135.756 310.108 125.554C302.47 120.059 292.569 115.564 290.29 106.432C286.712 92.0762 302.37 82.5877 304.512 69.6195C306.304 58.7552 300.015 44.055 288.313 41.9511C282.913 40.9815 277.397 42.5834 271.912 42.5489C266.427 42.5144 260.099 39.897 259.023 34.5013C257.79 28.3238 264.11 23.0047 264.431 16.7123C264.673 11.9718 261.333 7.6338 257.211 5.2885C251.317 1.97748 241.185 -0.49045 234.348 0.0843786C212.102 1.95066 191.396 12.4432 169.64 16.8617C154.816 19.8815 135.99 21.1423 122.144 27.1243C108.922 32.842 94.271 42.9436 84.1092 53.0185C78.2565 58.8242 75.5715 70.8305 67.4513 74.061C60.055 77.0042 49.4068 71.9955 41.3517 74.1377C36.8282 75.3525 32.5574 79.2038 32.7911 83.8714C32.9787 87.6232 35.9051 90.6353 37.1078 94.1954C37.6464 95.8237 37.8407 97.5463 37.6785 99.2539Z" fill="#E4F5FF"/>
<path d="M29.5469 99.756C29.6004 99.8182 29.6345 99.8948 29.6449 99.9762C29.6552 100.058 29.6413 100.14 29.605 100.214C29.5686 100.288 29.5113 100.349 29.4404 100.39C29.3694 100.431 29.2879 100.451 29.206 100.446C26.9461 100.319 20.6453 98.2576 17.47 97.8859C13.8197 97.4605 10.5218 98.5565 6.87156 98.1312C5.92707 98.0333 4.99282 97.8538 4.07929 97.5946C3.29546 97.365 2.57055 96.9684 1.95423 96.4322C1.33792 95.896 0.844777 95.2328 0.508616 94.4881C0.172454 93.7434 0.00122148 92.9347 0.00665619 92.1176C0.0120909 91.3005 0.194064 90.4942 0.540102 89.754C1.61258 87.4777 3.90692 85.9869 7.05159 85.6842C10.8129 85.301 13.9461 86.9258 17.041 88.5315C21.193 90.6852 27.6202 97.518 29.5469 99.756Z" fill="#E4F5FF"/>
<path d="M45.3008 65.5304C45.2634 65.5885 45.2132 65.6372 45.154 65.6729C45.0949 65.7085 45.0284 65.7301 44.9596 65.736C44.8908 65.7419 44.8216 65.732 44.7572 65.707C44.6929 65.682 44.6351 65.6426 44.5883 65.5918C44.0406 65.0016 43.5733 63.553 43.4392 62.9897C42.8915 60.6597 42.2097 58.3259 42.9183 55.904C43.4201 54.1757 44.3317 52.7731 46.1587 52.2212C47.3078 51.8725 48.2156 51.9453 49.0391 52.5163C49.7047 53.0065 50.1579 53.7327 50.306 54.5462C50.4541 55.3598 50.2859 56.1991 49.8358 56.8927C49.6558 57.1801 49.4528 57.4637 49.2574 57.7473C47.9207 59.6442 46.7524 63.2311 45.3008 65.5304Z" fill="#E4F5FF"/>
<path d="M22.0165 52.8844C21.5625 52.2305 21.3116 51.4571 21.2952 50.6612C21.2788 49.8652 21.4977 49.0821 21.9243 48.4101C22.351 47.7381 22.9664 47.2071 23.6935 46.8836C24.4206 46.5602 25.2269 46.4587 26.0114 46.5919C27.8176 46.7904 29.477 47.6802 30.6423 49.0752C32.3123 51.1292 33.898 55.8007 33.7295 58.0042C33.71 58.2593 33.5943 58.4975 33.4058 58.6704C33.2174 58.8434 32.9702 58.9381 32.7144 58.9354C32.0863 58.9354 31.6152 58.5139 31.1517 58.1268C29.5888 56.8127 27.7591 55.8542 25.7893 55.3178C24.0925 54.8656 22.8208 54.0724 22.0165 52.8844Z" fill="#E4F5FF"/>
<path d="M13.1341 112.257C14.8845 114.682 13.0536 117.373 10.2767 117.12C8.70241 117.028 7.73335 116.043 7.44991 114.537C7.08986 112.651 8.98202 110.341 11.0925 110.984C11.9102 111.133 12.6405 111.588 13.1341 112.257Z" fill="#E4F5FF"/>
<path d="M342.994 181.558C343.539 182.138 344.242 182.544 345.016 182.726C345.791 182.908 346.601 182.857 347.347 182.58C348.092 182.303 348.739 181.812 349.207 181.169C349.675 180.526 349.943 179.759 349.977 178.964C350.159 177.154 349.632 175.345 348.506 173.917C346.848 171.851 342.608 169.318 340.417 169.038C340.164 169.005 339.908 169.069 339.701 169.217C339.493 169.365 339.349 169.586 339.298 169.836C339.179 170.452 339.482 170.985 339.766 171.533C340.723 173.345 341.278 175.342 341.39 177.389C341.485 179.113 341.999 180.523 342.994 181.558Z" fill="#E4F5FF"/>
<path d="M345.231 154.694C346.499 157.407 344.201 159.707 341.52 158.94C339.988 158.557 339.222 157.407 339.222 155.875C339.222 153.958 341.52 152.042 343.466 153.069C344.24 153.365 344.872 153.947 345.231 154.694Z" fill="#E4F5FF"/>
<path d="M310.812 210.388C312.789 212.637 311.441 215.304 308.801 215.189C307.311 215.189 306.27 214.274 305.799 212.84C305.205 211.051 306.672 208.744 308.729 209.265C309.535 209.377 310.275 209.775 310.812 210.388Z" fill="#E4F5FF"/>
<path d="M299.632 211.361C301.612 212.066 301.7 214.162 300.045 214.998C299.621 215.233 299.13 215.321 298.65 215.247C298.17 215.173 297.728 214.941 297.395 214.588C296.418 213.691 296.525 211.775 297.966 211.388C298.5 211.181 299.091 211.172 299.632 211.361Z" fill="#E4F5FF"/>
</g>
<defs>
<clipPath id="clip0_29_27">
<rect width="350" height="284" fill="white"/>
</clipPath>
</defs>
</svg>
