<svg width="45" height="36" viewBox="0 0 45 36" fill="none" xmlns="http://www.w3.org/2000/svg">
<path d="M23.5834 28.7944C21.9461 30.0727 20.6416 31.6952 18.9497 32.9953C18.787 33.1314 18.5882 33.217 18.3777 33.2419C18.1671 33.2668 17.9539 33.2297 17.7641 33.1353C17.5742 33.0408 17.4159 32.8931 17.3086 32.7101C17.2012 32.5271 17.1494 32.3168 17.1595 32.1049C17.2687 30.0181 17.5197 27.9368 17.5743 25.8445C17.6234 24.1292 18.4639 23.0038 19.7029 21.9386C24.926 17.4208 30.1055 12.8484 35.2905 8.28151C35.6234 7.99198 35.8909 7.69153 35.6726 7.38561C35.4542 7.07969 34.9085 7.27089 34.4336 7.54949C27.3166 11.734 20.1941 15.9185 13.0989 20.1795C12.5525 20.5747 11.9122 20.8194 11.2418 20.8894C10.5714 20.9594 9.8944 20.8521 9.27837 20.5783C7.09523 19.6933 4.80839 19.0761 2.56521 18.344C2.30113 18.2838 2.04204 18.2034 1.7902 18.1037C0.998809 17.7103 -0.163714 17.399 2.17007e-05 16.3501C0.103721 15.7601 1.03156 15.1319 1.7247 14.8642C6.32022 13.1106 10.9157 11.4336 15.5331 9.73462C23.9655 6.62628 32.3924 3.50154 40.8302 0.42051C41.572 0.104266 42.3784 -0.0305636 43.1826 0.0271865C44.6453 0.240237 45.3002 1.63872 44.88 3.45238C44.1268 6.82294 43.3245 10.1826 42.5713 13.5422C41.1704 19.6496 39.7714 25.7571 38.3742 31.8645C38.2541 32.4108 38.134 32.9243 37.9976 33.4542C37.299 36.2184 35.8963 36.7319 33.5058 35.0056C30.7769 33.05 28.0807 31.0342 25.3736 29.0457L24.9206 28.7398C24.7204 28.6067 24.4833 28.5404 24.2431 28.5502C24.003 28.56 23.7721 28.6455 23.5834 28.7944Z" fill="#A1C9E9"/>
</svg>