<svg width="50" height="28" viewBox="0 0 50 28" fill="none" xmlns="http://www.w3.org/2000/svg">
<path d="M17.6299 2.45215C17.5024 2.33079 17.4082 2.17814 17.3565 2.00907C17.3047 1.84001 17.2973 1.66031 17.3349 1.48747C17.3724 1.31464 17.4537 1.15458 17.5707 1.0229C17.6878 0.891207 17.8367 0.792384 18.0028 0.736058C20.9108 -0.128758 23.9893 -0.229746 26.9467 0.442662C28.7179 0.857845 29.1401 1.42803 29.195 3.35448C29.195 5.47469 29.1401 7.59489 29.1237 9.7151C29.0904 10.4538 29.1124 11.194 29.1895 11.9294C29.4143 13.4739 30.5659 13.9555 31.69 12.9591C32.3869 12.3627 32.9897 11.6627 33.4777 10.8832C34.8147 8.80888 36.0234 6.6532 37.0969 4.42843C38.0346 2.33036 39.2191 1.21767 41.6429 1.45571C43.7212 1.66607 45.8434 1.4225 47.9381 1.5C49.9451 1.57196 50.5319 2.43001 49.501 4.12949C47.8559 6.89739 45.9147 9.44938 44.0886 12.0844C43.5402 12.8373 42.937 13.5182 42.4435 14.2987C41.4784 15.8266 41.5058 16.3359 42.789 17.6922C44.4341 19.4249 46.1669 21.0524 47.8065 22.7796C48.4995 23.508 49.1 24.3206 49.5942 25.1987C50.2961 26.4664 49.9616 27.2026 48.5962 27.6787C48.0787 27.8411 47.542 27.9323 47.0004 27.95C44.9715 27.9943 42.937 28.0441 40.9026 28.0109C38.5117 27.9721 36.8776 26.483 35.3257 24.8721C34.4858 23.9081 33.5884 22.9967 32.6387 22.1429C31.4597 21.1852 30.7139 21.296 29.9517 22.6301C29.5102 23.5829 29.2444 24.6091 29.1676 25.6582C29.0757 26.2561 28.7853 26.8048 28.3438 27.2142C27.9024 27.6236 27.3363 27.8694 26.7383 27.9112C23.3796 28.2299 20.0006 27.573 16.9993 26.018C12.6946 23.8037 9.67863 20.2386 7.18357 16.2529C4.79818 12.4553 2.79664 8.4308 0.603178 4.49486C0.364733 4.10305 0.18025 3.68029 0.054812 3.23823C-0.186469 2.19751 0.180936 1.5775 1.20638 1.52768C3.57532 1.4391 5.94975 1.46125 8.33514 1.47785C9.47574 1.47785 10.1118 2.19197 10.6054 3.18287C11.7021 5.39719 12.8372 7.6115 14.0436 9.77599C14.6068 10.8289 15.2976 11.8071 16.1 12.6878C16.5387 13.1528 17.5148 13.6012 17.9535 13.4462C19.4012 12.9203 19.3902 10.8555 19.4066 10.4846C19.4066 9.74831 19.4505 9.01206 19.4505 8.27026C19.4724 4.72736 19.4724 4.27342 17.6299 2.45215Z" fill="#A1C9E9"/>
</svg>