<svg width="160" height="160" viewBox="0 0 160 160" fill="none" xmlns="http://www.w3.org/2000/svg">
<circle cx="80" cy="80" r="79.5" stroke="#225AAA" stroke-dasharray="2 2"/>
<g clip-path="url(#clip0_17_216)">
<path d="M41.1431 19.3734C48.6604 14.4951 57.0232 11.0649 65.8008 9.25928" stroke="#225AAA" stroke-linecap="round" stroke-linejoin="round"/>
<path d="M9.94501 63.5332C11.8098 55.5923 15.0106 48.0261 19.4108 41.1577" stroke="#225AAA" stroke-linecap="round" stroke-linejoin="round"/>
<path d="M94.9658 9.25928C108.131 11.9664 120.282 18.2867 130.058 27.5116C139.833 36.7366 146.846 48.5017 150.31 61.4883C153.775 74.475 153.554 88.1698 149.673 101.038C145.792 113.906 138.403 125.439 128.336 134.344C118.268 143.25 105.92 149.175 92.6739 151.456C79.4282 153.738 65.8087 152.285 53.3421 147.261C40.8755 142.238 30.0544 133.841 22.0917 123.013C14.1289 112.185 9.33919 99.3527 8.25934 85.9553" stroke="#225AAA" stroke-linecap="round" stroke-linejoin="round"/>
<path d="M71.6722 46.8216C72.5332 39.6691 74.2656 32.2002 77.8185 25.9502C78.8345 24.1331 80.1436 22.4963 81.693 21.1058C82.7522 20.1917 83.4049 18.8943 83.5075 17.4989C83.6101 16.1036 83.1543 14.7247 82.2402 13.6654C81.3261 12.6062 80.0287 11.9535 78.6333 11.8509C77.238 11.7483 75.859 12.2041 74.7998 13.1182C74.3298 13.526 73.9318 14.0099 73.6224 14.5498C70.3444 19.7365 69.2345 25.3537 68.7988 31.1473C68.4705 36.4249 68.7367 41.7227 69.5924 46.9408C69.6054 47.216 69.7272 47.4746 69.931 47.6599C70.1348 47.8452 70.4039 47.942 70.679 47.9289C70.9541 47.9159 71.2128 47.794 71.3981 47.5902C71.5834 47.3865 71.6801 47.1174 71.667 46.8423L71.6722 46.8216Z" fill="#225AAA"/>
<path d="M38.4876 66.4689C32.2128 65.7741 25.8619 66.4393 19.8672 68.4191C19.0892 68.6525 17.9482 69.1608 17.1909 69.4564C16.6076 69.6928 16.0833 70.0544 15.655 70.5157C15.2267 70.977 14.905 71.5266 14.7124 72.1258C14.5198 72.7251 14.4612 73.3593 14.5406 73.9837C14.62 74.6081 14.8355 75.2074 15.1718 75.7394C15.5082 76.2714 15.9573 76.723 16.4874 77.0624C17.0174 77.4018 17.6156 77.6207 18.2395 77.7036C18.8634 77.7866 19.4979 77.7315 20.0983 77.5424C20.6986 77.3532 21.25 77.0345 21.7137 76.6089L22.9533 75.5197C24.9219 73.9443 27.0641 72.5991 29.3382 71.5104C31.1599 70.6227 33.0422 69.8652 34.971 69.2438C36.1432 68.8703 37.3828 68.5176 38.5706 68.2583C38.7812 68.2127 38.9687 68.0936 39.0996 67.9224C39.2305 67.7512 39.2962 67.5391 39.285 67.3239C39.2737 67.1087 39.1863 66.9045 39.0383 66.7478C38.8903 66.5912 38.6914 66.4923 38.4772 66.4689H38.4876Z" fill="#225AAA"/>
<path d="M59.8983 36.0176L59.3485 24.389C58.9336 19.6328 52.1183 19.944 52.1546 24.7262C52.1817 25.3128 52.3508 25.8841 52.6473 26.3911L58.5809 36.4118C58.6625 36.5462 58.7864 36.6497 58.9332 36.7061C59.0799 36.7626 59.2413 36.7687 59.3919 36.7237C59.5425 36.6786 59.674 36.5848 59.7656 36.4571C59.8572 36.3293 59.9039 36.1748 59.8983 36.0176Z" fill="#225AAA"/>
<path d="M75.4274 67.0914C74.8517 67.4337 74.2708 67.7604 73.6795 68.082L66.4181 58.7459C66.2905 58.6007 66.1355 58.4822 65.9619 58.3973C65.7883 58.3123 65.5996 58.2627 65.4067 58.2511C65.2138 58.2395 65.0205 58.2663 64.838 58.3298C64.6554 58.3934 64.4874 58.4925 64.3434 58.6214L63.6898 59.2024C63.5456 59.3306 63.4281 59.4861 63.344 59.6599C63.2599 59.8336 63.2109 60.0222 63.1998 60.215C63.1888 60.4077 63.2158 60.6007 63.2794 60.7829C63.343 60.9652 63.442 61.1331 63.5706 61.277L70.5311 69.6847C69.3434 70.2397 68.1764 70.7221 67.0768 71.1785L60.7023 63.8756C60.5748 63.7301 60.4196 63.6115 60.2458 63.5266C60.072 63.4418 59.883 63.3923 59.6899 63.3812C59.4968 63.3701 59.3035 63.3976 59.1211 63.462C58.9387 63.5264 58.7709 63.6264 58.6276 63.7563L57.9741 64.332C57.8292 64.4599 57.7112 64.6152 57.6267 64.789C57.5422 64.9628 57.493 65.1516 57.4819 65.3445C57.4708 65.5374 57.4981 65.7306 57.5621 65.9129C57.6261 66.0952 57.7256 66.2631 57.8548 66.4067L63.3164 72.5426C62.3832 72.8676 61.421 73.102 60.443 73.2428C59.8952 73.2889 59.3436 73.2468 58.8091 73.1183C54.8206 69.1401 49.3486 63.6785 47.6266 61.9721C49.4661 60.1187 51.3472 58.312 53.2697 56.5519C45.6452 48.9845 37.1909 40.7687 29.5612 33.2117L36.4907 26.5571C43.4063 35.3918 50.3133 44.2231 57.2116 53.0509C59.1895 51.3531 61.2054 49.7003 63.2593 48.0924C66.278 51.9513 72.5954 60.359 76.8745 65.914C76.4703 66.3937 75.9794 66.7932 75.4274 67.0914Z" fill="#225AAA"/>
<path d="M117.206 61.5052C112.922 55.3278 103.249 54.3216 92.0768 57.8745L93.0622 58.445C102.206 55.9139 110.007 56.9824 113.576 62.1224C119.577 70.779 111.283 87.7033 95.0436 99.9284C78.8039 112.154 60.7749 115.043 54.7687 106.386C51.7552 102.045 52.3413 95.6182 55.723 88.751C55.4585 87.8019 55.1992 86.8008 54.9554 85.7635C48.1711 95.7324 46.029 105.649 50.3236 111.847C53.1504 115.919 58.3942 117.755 64.8465 117.522C64.8465 117.522 77.6784 117.548 87.1857 111.267C87.1857 111.267 91.2832 108.595 88.0778 111.785C85.2095 114.379 81.3039 116.453 77.7355 118.009C83.5809 118.756 89.6338 118.217 95.1058 115.935C108.384 110.369 115.365 96.8838 115.277 83.2012C119.846 74.7987 120.879 66.7956 117.206 61.5052Z" fill="#225AAA"/>
<path d="M88.5809 94.2125C83.778 95.0113 78.2749 95.0424 73.0726 93.0352C92.7355 92.6098 100.687 87.086 105.593 75.2447C106.613 72.431 107.187 69.4753 107.295 66.4843C107.295 44.809 76.0705 45.8723 71.6514 53.419C71.4906 53.6991 83.2126 66.8215 78.0103 69.8972C74.0701 72.0796 69.9995 74.0179 65.8216 75.7011C67.3776 76.142 70.3133 75.9501 73.2126 75.7634H73.2956C73.8921 75.7271 77.4917 75.5663 73.4408 77.0341C53.7987 83.5227 52.4242 65.9605 49.0633 67.8277C43.0363 71.1576 41.9678 93.6939 61.0342 99.8713C63.9184 100.709 66.9422 100.956 69.9242 100.597C65.0539 98.5953 60.9045 95.4885 59.5923 92.5061C70.3911 101.209 82.7666 97.0445 88.5809 94.2125Z" fill="#225AAA"/>
<path d="M35.3392 124.27L40.5882 117.89C40.9614 117.433 41.388 117.022 41.8589 116.666C42.2852 116.342 42.7746 116.11 43.2956 115.986C43.8204 115.874 44.3646 115.888 44.8828 116.028C45.5052 116.209 46.0805 116.524 46.5685 116.951C47.0435 117.322 47.4462 117.778 47.7562 118.295C48.0074 118.724 48.1581 119.204 48.1971 119.7C48.2322 120.175 48.1595 120.652 47.9844 121.095C47.7912 121.578 47.5215 122.026 47.1857 122.423L44.8257 121.313C45.169 120.929 45.402 120.46 45.5 119.954C45.5273 119.735 45.4933 119.512 45.4018 119.311C45.3102 119.109 45.1647 118.937 44.9813 118.813C44.794 118.641 44.559 118.529 44.307 118.492C44.0861 118.469 43.8629 118.503 43.6587 118.59C43.4507 118.684 43.2569 118.806 43.083 118.953C42.9151 119.093 42.7606 119.247 42.6214 119.415L37.305 125.893C37.1946 126.029 37.0973 126.175 37.0145 126.329C36.9203 126.488 36.857 126.664 36.8278 126.847C36.7998 127.045 36.8212 127.246 36.89 127.434C36.9832 127.661 37.1354 127.86 37.3309 128.009C38.0674 128.614 38.8748 128.397 39.7531 127.356C40.0384 127.688 40.3236 128.014 40.6245 128.336L41.5114 129.332C40.842 130.193 39.8809 130.779 38.8091 130.981C38.269 131.033 37.724 130.967 37.2118 130.788C36.6996 130.609 36.2323 130.321 35.8423 129.944C34.805 129.079 34.2465 128.174 34.167 127.226C34.0996 126.287 34.4938 125.302 35.3392 124.27Z" fill="#225AAA"/>
<path d="M42.4813 134.654L50.5985 120.208L57.0145 123.839L55.8268 125.955L51.6774 123.621L49.4627 127.563L53.0934 129.596L51.9004 131.713L48.2697 129.679L45.9409 133.829L50.0902 136.163L48.9025 138.284L42.4813 134.654Z" fill="#225AAA"/>
<path d="M52.6058 139.913L57.9741 124.239L60.3859 125.068L58.1556 131.588L58.6743 131.759C59.1534 131.943 59.6838 131.943 60.1629 131.759C60.7378 131.462 61.2056 130.992 61.5011 130.416C61.5737 130.286 61.7345 130.027 61.9731 129.633C62.2116 129.239 62.4606 128.813 62.7303 128.357L63.5031 127.081C63.7365 126.681 63.8973 126.422 63.9648 126.303L66.2106 127.076L64.9087 129.254L63.5965 131.407C63.2436 132.013 62.7727 132.542 62.2116 132.963C61.78 133.287 61.2662 133.485 60.7282 133.533V133.58C61.2056 133.958 61.5477 134.48 61.7033 135.068C61.862 135.77 61.8866 136.495 61.776 137.205C61.667 138.155 61.5529 139.093 61.444 140.011C61.3351 140.929 61.221 141.858 61.1069 142.802L58.6847 141.977C58.7936 141.163 58.9025 140.348 59.0062 139.529C59.11 138.709 59.2241 137.89 59.3382 137.06C59.4786 136.386 59.4246 135.687 59.1826 135.042C59.0661 134.815 58.9043 134.613 58.7072 134.45C58.5101 134.287 58.2819 134.165 58.0363 134.093L57.3828 133.87L55.0228 140.743L52.6058 139.913Z" fill="#225AAA"/>
<path d="M64.9761 143.627L67.2998 127.221L70.9668 127.74C72.4917 127.957 73.5515 128.507 74.1463 129.389C74.741 130.271 74.9139 131.588 74.6649 133.341C74.5719 134.05 74.3978 134.746 74.1463 135.416C73.9377 135.981 73.6085 136.495 73.1815 136.92C72.7548 137.326 72.2319 137.617 71.6618 137.766C70.9464 137.937 70.2035 137.962 69.4782 137.838L68.4409 137.688L67.5487 144.01L64.9761 143.627ZM68.778 135.266L69.6701 135.39C69.9707 135.467 70.2858 135.468 70.5866 135.391C70.8874 135.315 71.1643 135.165 71.3921 134.954C71.8307 134.396 72.091 133.718 72.139 133.009C72.2661 132.355 72.2087 131.678 71.973 131.054C71.8253 130.78 71.608 130.55 71.343 130.387C71.078 130.224 70.7747 130.134 70.4637 130.126L69.5249 129.991L68.778 135.266Z" fill="#225AAA"/>
<path d="M77.0301 144.892L76.4128 128.295L83.7624 128.02L83.8558 130.452L79.0892 130.629L79.2604 135.146L83.4097 134.991L83.5031 137.423L79.3537 137.574L79.5301 142.325L84.2915 142.148L84.3848 144.581L77.0301 144.892Z" fill="#225AAA"/>
<path d="M85.3496 130.266L84.8309 127.895L92.5436 126.142L93.0623 128.512L90.4689 129.104L93.5809 142.89L91.0498 143.466L87.9378 129.674L85.3496 130.266Z" fill="#225AAA"/>
<path d="M103.986 135.209L100.08 127.921C99.8019 127.402 99.586 126.852 99.4367 126.282C99.2979 125.763 99.2714 125.22 99.359 124.69C99.4521 124.162 99.6729 123.665 100.002 123.243C100.404 122.736 100.912 122.323 101.491 122.034C102.018 121.739 102.594 121.54 103.192 121.448C103.683 121.38 104.182 121.423 104.655 121.573C105.107 121.723 105.52 121.973 105.863 122.304C106.236 122.666 106.548 123.087 106.786 123.549L104.867 125.302C104.646 124.838 104.299 124.444 103.866 124.166C103.679 124.05 103.464 123.989 103.244 123.989C103.024 123.989 102.808 124.05 102.621 124.166C102.387 124.279 102.192 124.46 102.061 124.685C101.955 124.88 101.901 125.1 101.906 125.323C101.911 125.55 101.949 125.776 102.02 125.992C102.085 126.199 102.168 126.401 102.269 126.593L106.231 134C106.315 134.155 106.412 134.303 106.522 134.441C106.643 134.593 106.79 134.721 106.957 134.82C107.132 134.919 107.328 134.975 107.528 134.98C107.772 134.981 108.012 134.917 108.223 134.794C109.063 134.341 109.169 133.511 108.539 132.304C108.954 132.169 109.369 132.029 109.779 131.874L111.003 131.417C111.549 132.357 111.734 133.463 111.522 134.529C111.367 135.048 111.101 135.528 110.743 135.934C110.385 136.341 109.943 136.665 109.447 136.884C108.244 137.527 107.191 137.703 106.294 137.403C105.271 136.995 104.444 136.21 103.986 135.209Z" fill="#225AAA"/>
<path d="M113.809 129.519L108.576 123.03C108.193 122.566 107.875 122.051 107.632 121.5C107.42 121.02 107.31 120.5 107.31 119.975C107.32 119.451 107.461 118.937 107.72 118.481C108.034 117.933 108.454 117.452 108.954 117.065C109.451 116.643 110.02 116.314 110.635 116.095C111.123 115.933 111.644 115.899 112.149 115.997C112.652 116.11 113.123 116.333 113.529 116.65C114.013 117.031 114.451 117.468 114.831 117.952L119.914 124.254C120.823 125.375 121.256 126.427 121.211 127.413C121.169 128.393 120.604 129.327 119.525 130.198C118.446 131.07 117.419 131.448 116.48 131.298C115.399 131.06 114.446 130.425 113.809 129.519ZM115.848 127.916C116.099 128.235 116.438 128.473 116.823 128.601C117.03 128.641 117.244 128.635 117.45 128.583C117.655 128.532 117.846 128.435 118.009 128.301C118.173 128.167 118.305 127.998 118.395 127.807C118.486 127.616 118.534 127.407 118.534 127.195C118.465 126.749 118.273 126.33 117.979 125.987L112.699 119.477C112.432 119.139 112.087 118.872 111.693 118.699C111.483 118.624 111.256 118.611 111.039 118.662C110.822 118.713 110.624 118.825 110.469 118.985C110.26 119.138 110.106 119.354 110.028 119.602C109.964 119.815 109.953 120.042 109.997 120.26C110.05 120.489 110.135 120.71 110.251 120.914C110.356 121.115 110.481 121.304 110.624 121.479L115.848 127.916Z" fill="#225AAA"/>
<path d="M118.104 117.875L113.145 113.725L114.784 111.77L119.411 115.66C119.582 115.844 119.789 115.991 120.019 116.092C120.249 116.192 120.498 116.245 120.749 116.246C121.165 116.161 121.535 115.925 121.786 115.582C121.925 115.422 122.047 115.248 122.149 115.063C122.265 114.853 122.36 114.632 122.435 114.405L116.672 109.565L118.337 107.579L131.029 118.227L129.369 120.183L124.292 115.924C124.167 116.231 124.016 116.526 123.84 116.806C123.686 117.067 123.512 117.317 123.322 117.553C123.007 117.952 122.635 118.301 122.217 118.59C121.856 118.833 121.441 118.984 121.008 119.031C120.55 119.073 120.087 119.005 119.66 118.834C119.09 118.605 118.564 118.281 118.104 117.875Z" fill="#225AAA"/>
<path d="M133.82 114.124L119.297 106.126L120.552 103.917L126.589 107.247L128.031 104.653L121.994 101.324L123.218 99.0933L137.741 107.096L136.511 109.327L130.168 105.826L128.726 108.419L135.075 111.894L133.82 114.124Z" fill="#225AAA"/>
<path d="M135.837 101.412L127.901 98.8651C127.326 98.6841 126.778 98.4258 126.273 98.0975C125.831 97.8148 125.455 97.4418 125.168 97.0031C124.889 96.559 124.723 96.0532 124.686 95.53C124.647 94.8983 124.735 94.2651 124.945 93.668C125.124 93.0409 125.42 92.4532 125.816 91.9356C126.132 91.5307 126.549 91.2159 127.025 91.0228C127.507 90.8384 128.025 90.7674 128.539 90.8153C129.154 90.8649 129.76 90.9886 130.344 91.1836L138.047 93.6576C139.43 94.1002 140.369 94.7434 140.863 95.5871C141.382 96.4325 141.413 97.5217 140.988 98.8443C140.562 100.167 139.914 101.044 139.043 101.438C138.008 101.828 136.865 101.819 135.837 101.412ZM136.662 98.9533C137.045 99.0826 137.458 99.0971 137.85 98.9948C138.046 98.9146 138.222 98.7921 138.365 98.636C138.508 98.4799 138.615 98.2941 138.678 98.0919C138.741 97.8897 138.758 97.676 138.729 97.4663C138.7 97.2565 138.624 97.0558 138.508 96.8786C138.208 96.54 137.818 96.2936 137.383 96.168L129.369 93.6006C128.962 93.4625 128.527 93.4304 128.104 93.5072C127.887 93.5579 127.69 93.67 127.535 93.8301C127.381 93.9901 127.275 94.1914 127.232 94.4097C127.153 94.6576 127.153 94.9242 127.232 95.1721C127.296 95.3859 127.411 95.5803 127.57 95.7375C127.737 95.9034 127.929 96.0417 128.14 96.1473C128.34 96.2517 128.548 96.3402 128.762 96.4118L136.662 98.9533Z" fill="#225AAA"/>
<path d="M139.151 89.9854L130.951 88.9481C130.368 88.8776 129.795 88.7366 129.245 88.5279C128.741 88.3414 128.283 88.0497 127.901 87.6721C127.524 87.2914 127.245 86.8252 127.087 86.3132C126.907 85.6882 126.865 85.0318 126.963 84.3889C127.029 83.7881 127.205 83.2045 127.481 82.6669C127.707 82.225 128.032 81.8414 128.431 81.5466C128.812 81.2618 129.254 81.0684 129.722 80.9813C130.236 80.8874 130.761 80.8752 131.278 80.945L131.594 83.5383C131.088 83.4543 130.568 83.5099 130.09 83.6991C129.888 83.7892 129.715 83.9342 129.592 84.1176C129.468 84.3009 129.398 84.5154 129.39 84.7365C129.344 84.993 129.378 85.2576 129.489 85.4937C129.585 85.6935 129.734 85.8637 129.919 85.9864C130.106 86.1136 130.311 86.2132 130.526 86.2821C130.735 86.3468 130.948 86.3954 131.164 86.4273L139.463 87.4647C139.635 87.4805 139.809 87.4805 139.981 87.4647C140.176 87.4538 140.368 87.4081 140.547 87.3298C140.727 87.2437 140.883 87.1156 141.003 86.9564C141.147 86.7589 141.233 86.5255 141.252 86.2821C141.373 85.3312 140.758 84.7658 139.406 84.586C139.54 84.1659 139.66 83.7458 139.769 83.3257L140.111 82.0601C141.197 82.1636 142.208 82.664 142.948 83.4657C143.281 83.8919 143.519 84.385 143.644 84.9113C143.77 85.4377 143.78 85.9848 143.674 86.5155C143.501 87.871 143.033 88.827 142.269 89.3837C141.346 89.9781 140.229 90.1936 139.151 89.9854Z" fill="#225AAA"/>
<path d="M130.028 79.9594L127.601 80.0839L127.206 72.1638L129.634 72.0393L129.769 74.7001L143.892 73.9999L144.022 76.5933L129.888 77.2935L130.028 79.9594Z" fill="#225AAA"/>
<path d="M143.207 67.3092L127.098 71.1889L126.501 68.72L136.709 66.2563L136.683 66.1578L125.671 65.2812L125.08 62.8279L141.19 58.9482L141.786 61.4223L131.693 63.8549V63.9223L142.585 64.8611L143.207 67.3092Z" fill="#225AAA"/>
<path d="M32.7977 113.279L29.9969 111.111L26.7189 112.454L26.2417 115.966L29.0425 118.129L32.3205 116.785L32.7977 113.279Z" fill="#225AAA"/>
<path d="M126.231 50.722L127.507 54.0207L131.008 54.5653L133.228 51.806L131.952 48.5072L128.451 47.9626L126.231 50.722Z" fill="#225AAA"/>
</g>
<defs>
<clipPath id="clip0_17_216">
<rect width="145" height="143.76" fill="white" transform="translate(8 9)"/>
</clipPath>
</defs>
</svg>
