<svg width="145" height="144" viewBox="0 0 145 144" fill="none" xmlns="http://www.w3.org/2000/svg">
<path d="M33.1431 10.3734C40.6604 5.49513 49.0232 2.06487 57.8008 0.259277" stroke="#225AAA" stroke-linecap="round" stroke-linejoin="round"/>
<path d="M1.94501 54.5332C3.80977 46.5923 7.0106 39.0261 11.4108 32.1577" stroke="#225AAA" stroke-linecap="round" stroke-linejoin="round"/>
<path d="M86.9658 0.259277C100.131 2.96642 112.282 9.28666 122.058 18.5116C131.833 27.7366 138.846 39.5017 142.31 52.4883C145.775 65.475 145.554 79.1698 141.673 92.0381C137.792 104.906 130.403 116.439 120.336 125.344C110.268 134.25 97.9197 140.175 84.6739 142.456C71.4282 144.738 57.8087 143.285 45.3421 138.261C32.8755 133.238 22.0544 124.841 14.0917 114.013C6.12892 103.185 1.33919 90.3527 0.259338 76.9553" stroke="#225AAA" stroke-linecap="round" stroke-linejoin="round"/>
</svg>
