<?xml version="1.0" encoding="utf-8"?>
<!-- Generator: Adobe Illustrator 26.3.1, SVG Export Plug-In . SVG Version: 6.00 Build 0)  -->
<svg version="1.1" id="Слой_1" xmlns="http://www.w3.org/2000/svg" xmlns:xlink="http://www.w3.org/1999/xlink" x="0px" y="0px"
	 viewBox="0 0 120 120" style="enable-background:new 0 0 120 120;" xml:space="preserve">
<style type="text/css">
	.st0{fill:#F3CFB2;}
	.st1{fill:#B12028;}
	.st2{fill:#006098;}
	.st3{fill:#FFFFFF;}
	.st4{fill:#852E2C;}
	.st5{fill:#225AFF;}
	.st6{fill:#225AAA;}
</style>
<path class="st5" d="M109.26,120H10.74C4.81,120,0,115.19,0,109.26V10.74C0,4.81,4.81,0,10.74,0h98.52C115.19,0,120,4.81,120,10.74
	v98.52C120,115.19,115.19,120,109.26,120z"/>
<path class="st3" d="M28.85,98.62c-4.51,0.3-8.12-0.58-10.81-2.64c-2.7-2.06-4.39-4.84-5.07-8.32c-0.47-2.07-0.52-4.27-0.15-6.58
	c0.37-2.31,1.33-4.45,2.88-6.42c1.55-1.97,3.59-3.12,6.11-3.47c1.8-0.28,3.64,0.35,5.51,1.9c1.87,1.55,2.74,3.15,2.6,4.8
	c-1.35,1.54-2.19,3.09-2.51,4.65c-0.33,1.56-0.21,2.79,0.36,3.7c0.56,0.91,1.39,1.35,2.47,1.33c2.65-0.08,6.09-4.4,10.32-12.96
	c4.23-8.56,8.9-20.87,14.01-36.91c0,0,2.68-9.28,4.35-11.5c1.42-1.9,2.78-2.07,7.18-2c4.4,0.08,6.77,0.95,7.11,2.63
	c-3.7,22.22-5.1,37.48-4.18,45.8c0.22,1.89,0.73,2.77,1.51,2.64c0.78-0.13,1.66-1.12,2.64-2.98c2.59-5.06,5.72-12.35,9.39-21.87
	c3.67-9.52,6.73-18.48,9.18-26.89c1.23-1.4,3.79-2.13,7.68-2.18c3.88-0.05,6.57,0.75,8.05,2.4c-0.1,0.83-0.41,3.14-0.92,6.94
	c-0.52,3.8-0.86,6.43-1.04,7.88c-0.18,1.45-0.49,4-0.95,7.66c-0.46,3.66-0.79,6.45-0.98,8.38c-0.2,1.93-0.45,4.55-0.77,7.85
	c-0.32,3.31-0.51,6.07-0.58,8.3c-0.07,2.23-0.15,4.69-0.24,7.4c-0.09,2.71-0.09,5.18-0.01,7.43c0.08,2.25,0.24,4.39,0.46,6.42
	c-0.38,1.67-1.9,3.04-4.56,4.11c-2.66,1.07-5.31,1.54-7.96,1.42c-2.65-0.13-4.21-0.85-4.66-2.18c-0.24-4.96-0.05-10.02,0.55-15.15
	c0.6-5.14,1.63-11.72,3.07-19.76l-0.27,0.02c-3.57,12.31-7.26,20.84-11.06,25.59c-2.64,3.22-5.58,5.06-8.82,5.53
	c-3.24,0.47-5.89-0.54-7.93-3.04c-1.61-1.98-2.53-5.73-2.74-11.24c-0.22-5.51,0.05-10.3,0.8-14.39l-0.27,0.02
	c-1.01,3.09-1.83,5.52-2.45,7.31c-0.62,1.79-1.5,4.06-2.64,6.82c-1.14,2.75-2.2,4.97-3.19,6.66c-0.99,1.68-2.25,3.53-3.8,5.53
	c-1.55,2-3.14,3.58-4.77,4.74c-1.63,1.16-3.55,2.17-5.76,3.03C33.74,97.88,31.37,98.41,28.85,98.62z"/>
</svg>
