<svg width="106" height="108" viewBox="0 0 106 108" fill="none" xmlns="http://www.w3.org/2000/svg">
<path d="M57.6722 35.8216C58.5332 28.6691 60.2656 21.2002 63.8185 14.9502C64.8345 13.1331 66.1436 11.4963 67.693 10.1058C68.7522 9.1917 69.4049 7.89428 69.5075 6.49894C69.6101 5.10361 69.1543 3.72465 68.2402 2.66544C67.3261 1.60622 66.0287 0.95351 64.6333 0.85089C63.238 0.748271 61.859 1.20415 60.7998 2.11824C60.3298 2.52597 59.9318 3.00991 59.6224 3.54977C56.3444 8.7365 55.2345 14.3537 54.7988 20.1473C54.4705 25.4249 54.7367 30.7227 55.5924 35.9408C55.6054 36.216 55.7272 36.4746 55.931 36.6599C56.1348 36.8452 56.4039 36.942 56.679 36.9289C56.9541 36.9159 57.2128 36.794 57.3981 36.5902C57.5834 36.3865 57.6801 36.1174 57.667 35.8423L57.6722 35.8216Z" fill="#225AAA"/>
<path d="M24.4876 55.4689C18.2128 54.7741 11.8619 55.4393 5.86725 57.4191C5.08924 57.6525 3.94816 58.1608 3.1909 58.4564C2.60758 58.6928 2.08327 59.0544 1.65501 59.5157C1.22675 59.977 0.90497 60.5266 0.712404 61.1258C0.519838 61.7251 0.461177 62.3593 0.540565 62.9837C0.619952 63.6081 0.835451 64.2074 1.17184 64.7394C1.50824 65.2714 1.95732 65.723 2.48738 66.0624C3.01745 66.4018 3.61556 66.6207 4.23949 66.7036C4.86341 66.7866 5.49794 66.7315 6.09826 66.5424C6.69858 66.3532 7.25004 66.0345 7.71372 65.6089L8.95335 64.5197C10.9219 62.9443 13.0641 61.5991 15.3382 60.5104C17.1599 59.6227 19.0422 58.8652 20.971 58.2438C22.1432 57.8703 23.3828 57.5176 24.5706 57.2583C24.7812 57.2127 24.9687 57.0936 25.0996 56.9224C25.2305 56.7512 25.2962 56.5391 25.285 56.3239C25.2737 56.1087 25.1863 55.9045 25.0383 55.7478C24.8903 55.5912 24.6914 55.4923 24.4772 55.4689H24.4876Z" fill="#225AAA"/>
<path d="M45.8983 25.0176L45.3485 13.389C44.9336 8.63279 38.1183 8.94399 38.1546 13.7262C38.1817 14.3128 38.3508 14.8841 38.6473 15.3911L44.5809 25.4118C44.6625 25.5462 44.7864 25.6497 44.9332 25.7061C45.0799 25.7626 45.2413 25.7687 45.3919 25.7237C45.5425 25.6786 45.674 25.5848 45.7656 25.4571C45.8572 25.3293 45.9039 25.1748 45.8983 25.0176Z" fill="#225AAA"/>
<path d="M61.4274 56.0914C60.8517 56.4337 60.2708 56.7604 59.6795 57.082L52.4181 47.7459C52.2905 47.6007 52.1355 47.4822 51.9619 47.3973C51.7883 47.3123 51.5996 47.2627 51.4067 47.2511C51.2138 47.2395 51.0205 47.2663 50.838 47.3298C50.6554 47.3934 50.4874 47.4925 50.3434 47.6214L49.6898 48.2024C49.5456 48.3306 49.4281 48.4861 49.344 48.6599C49.2599 48.8336 49.2109 49.0222 49.1998 49.215C49.1888 49.4077 49.2158 49.6007 49.2794 49.7829C49.343 49.9652 49.442 50.1331 49.5706 50.277L56.5311 58.6847C55.3434 59.2397 54.1764 59.7221 53.0768 60.1785L46.7023 52.8756C46.5748 52.7301 46.4196 52.6115 46.2458 52.5266C46.072 52.4418 45.883 52.3923 45.6899 52.3812C45.4968 52.3701 45.3035 52.3976 45.1211 52.462C44.9387 52.5264 44.7709 52.6264 44.6276 52.7563L43.9741 53.332C43.8292 53.4599 43.7112 53.6152 43.6267 53.789C43.5422 53.9628 43.493 54.1516 43.4819 54.3445C43.4708 54.5374 43.4981 54.7306 43.5621 54.9129C43.6261 55.0952 43.7256 55.2631 43.8548 55.4067L49.3164 61.5426C48.3832 61.8676 47.421 62.102 46.443 62.2428C45.8952 62.2889 45.3436 62.2468 44.8091 62.1183C40.8206 58.1401 35.3486 52.6785 33.6266 50.9721C35.4661 49.1187 37.3472 47.312 39.2697 45.5519C31.6452 37.9845 23.1909 29.7687 15.5612 22.2117L22.4907 15.5571C29.4063 24.3918 36.3133 33.2231 43.2116 42.0509C45.1895 40.3531 47.2054 38.7003 49.2593 37.0924C52.278 40.9513 58.5954 49.359 62.8745 54.914C62.4703 55.3937 61.9794 55.7932 61.4274 56.0914Z" fill="#225AAA"/>
<path d="M103.206 50.5052C98.9222 44.3278 89.249 43.3216 78.0768 46.8745L79.0622 47.445C88.2064 44.9139 96.0073 45.9824 99.5757 51.1224C105.577 59.779 97.2832 76.7033 81.0436 88.9284C64.8039 101.154 46.7749 104.043 40.7687 95.3859C37.7552 91.0446 38.3413 84.6182 41.723 77.751C41.4585 76.8019 41.1992 75.8008 40.9554 74.7635C34.1711 84.7324 32.029 94.6494 36.3236 100.847C39.1504 104.919 44.3942 106.755 50.8465 106.522C50.8465 106.522 63.6784 106.548 73.1857 100.267C73.1857 100.267 77.2832 97.5954 74.0778 100.785C71.2095 103.379 67.3039 105.453 63.7355 107.009C69.5809 107.756 75.6338 107.217 81.1058 104.935C94.3838 99.3693 101.365 85.8838 101.277 72.2012C105.846 63.7987 106.879 55.7956 103.206 50.5052Z" fill="#225AAA"/>
<path d="M74.5809 83.2125C69.778 84.0113 64.2749 84.0424 59.0726 82.0352C78.7355 81.6098 86.6867 76.086 91.5933 64.2447C92.6133 61.431 93.1873 58.4753 93.2946 55.4843C93.2946 33.809 62.0705 34.8723 57.6514 42.419C57.4906 42.6991 69.2126 55.8215 64.0103 58.8972C60.0701 61.0796 55.9995 63.0179 51.8216 64.7011C53.3776 65.142 56.3133 64.9501 59.2126 64.7634H59.2956C59.8921 64.7271 63.4917 64.5663 59.4408 66.0341C39.7987 72.5227 38.4242 54.9605 35.0633 56.8277C29.0363 60.1576 27.9678 82.6939 47.0342 88.8713C49.9184 89.7094 52.9422 89.9564 55.9242 89.5974C51.0539 87.5953 46.9045 84.4885 45.5923 81.5061C56.3911 90.2094 68.7666 86.0445 74.5809 83.2125Z" fill="#225AAA"/>
</svg>
