<svg width="119" height="98" viewBox="0 0 119 98" fill="none" xmlns="http://www.w3.org/2000/svg">
<path d="M9.3392 77.2696L14.5882 70.89C14.9614 70.4327 15.388 70.0218 15.8589 69.6659C16.2852 69.3418 16.7746 69.1104 17.2956 68.9864C17.8204 68.8735 18.3646 68.8878 18.8828 69.0279C19.5052 69.2092 20.0805 69.5243 20.5685 69.9512C21.0435 70.3222 21.4462 70.7776 21.7562 71.2945C22.0074 71.7238 22.1581 72.2043 22.1971 72.7001C22.2322 73.1753 22.1595 73.6522 21.9844 74.0954C21.7912 74.578 21.5215 75.0263 21.1857 75.4232L18.8257 74.3132C19.169 73.9294 19.402 73.4598 19.5 72.9543C19.5273 72.7347 19.4933 72.5119 19.4018 72.3105C19.3102 72.1091 19.1647 71.937 18.9813 71.8132C18.794 71.6406 18.559 71.5285 18.307 71.4916C18.0861 71.4689 17.8629 71.5028 17.6587 71.5902C17.4507 71.6836 17.2569 71.8058 17.083 71.9533C16.9151 72.0925 16.7606 72.247 16.6214 72.4149L11.305 78.8931C11.1946 79.0288 11.0973 79.1747 11.0145 79.3288C10.9203 79.4884 10.857 79.6644 10.8278 79.8474C10.7998 80.045 10.8212 80.2463 10.89 80.4335C10.9832 80.6612 11.1354 80.8599 11.3309 81.0093C12.0674 81.6144 12.8748 81.3965 13.7531 80.3557C14.0384 80.6877 14.3236 81.0145 14.6245 81.336L15.5114 82.3319C14.842 83.1929 13.8809 83.7795 12.8091 83.9813C12.269 84.0333 11.724 83.9675 11.2118 83.7884C10.6996 83.6093 10.2323 83.3212 9.84231 82.9439C8.80496 82.0795 8.24653 81.1735 8.167 80.2261C8.09957 79.2873 8.49376 78.3018 9.3392 77.2696Z" fill="#225AAA"/>
<path d="M16.4813 87.6535L24.5985 73.2085L31.0145 76.8392L29.8268 78.9554L25.6774 76.6214L23.4627 80.5633L27.0934 82.5965L25.9004 84.7126L22.2697 82.6794L19.9409 86.8288L24.0902 89.1629L22.9025 91.2842L16.4813 87.6535Z" fill="#225AAA"/>
<path d="M26.6058 92.9128L31.9741 77.2385L34.3859 78.0684L32.1556 84.5881L32.6743 84.7593C33.1534 84.9434 33.6838 84.9434 34.1629 84.7593C34.7378 84.4616 35.2056 83.992 35.5011 83.4159C35.5737 83.2862 35.7345 83.0269 35.9731 82.6327C36.2116 82.2385 36.4606 81.8132 36.7303 81.3568L37.5031 80.0809C37.7365 79.6815 37.8973 79.4221 37.9648 79.3028L40.2106 80.0757L38.9087 82.2541L37.5965 84.4066C37.2436 85.0126 36.7727 85.5418 36.2116 85.9626C35.78 86.2872 35.2662 86.4848 34.7282 86.5331V86.5798C35.2056 86.9576 35.5477 87.4799 35.7033 88.0684C35.862 88.7698 35.8866 89.4948 35.776 90.2053C35.667 91.1545 35.5529 92.0933 35.444 93.0113C35.3351 93.9294 35.221 94.8578 35.1069 95.8018L32.6847 94.9771C32.7936 94.1628 32.9025 93.3485 33.0062 92.529C33.11 91.7095 33.2241 90.89 33.3382 90.0601C33.4786 89.3864 33.4246 88.6867 33.1826 88.0425C33.0661 87.8147 32.9043 87.613 32.7072 87.4498C32.5101 87.2866 32.2819 87.1653 32.0363 87.0933L31.3828 86.8703L29.0228 93.7427L26.6058 92.9128Z" fill="#225AAA"/>
<path d="M38.9761 96.6266L41.2998 80.2209L44.9668 80.7396C46.4917 80.9575 47.5515 81.5073 48.1463 82.389C48.741 83.2707 48.9139 84.5882 48.6649 86.3413C48.5719 87.0504 48.3978 87.7465 48.1463 88.416C47.9377 88.9815 47.6085 89.4948 47.1815 89.9201C46.7548 90.3262 46.2319 90.6171 45.6618 90.7656C44.9464 90.9373 44.2035 90.962 43.4782 90.8382L42.4409 90.6878L41.5487 97.0104L38.9761 96.6266ZM42.778 88.2656L43.6701 88.39C43.9707 88.4671 44.2858 88.4676 44.5866 88.3915C44.8874 88.3153 45.1643 88.1651 45.3921 87.9544C45.8307 87.3957 46.091 86.718 46.139 86.0093C46.2661 85.3548 46.2087 84.6777 45.973 84.0539C45.8253 83.7801 45.608 83.5501 45.343 83.3871C45.078 83.2241 44.7747 83.1338 44.4637 83.1255L43.5249 82.9907L42.778 88.2656Z" fill="#225AAA"/>
<path d="M51.0301 97.8922L50.4128 81.2947L57.7624 81.0198L57.8558 83.4523L53.0892 83.6287L53.2604 88.1463L57.4097 87.9907L57.5031 90.4233L53.3537 90.5737L53.5301 95.3247L58.2915 95.1484L58.3848 97.581L51.0301 97.8922Z" fill="#225AAA"/>
<path d="M59.3496 83.2655L58.8309 80.8952L66.5436 79.1421L67.0623 81.5124L64.4689 82.1037L67.5809 95.89L65.0498 96.4657L61.9378 82.6742L59.3496 83.2655Z" fill="#225AAA"/>
<path d="M77.9855 88.2086L74.0799 80.9212C73.8019 80.4021 73.586 79.8519 73.4367 79.2822C73.2979 78.763 73.2714 78.2202 73.359 77.6899C73.4521 77.1623 73.6729 76.6655 74.0021 76.2428C74.4036 75.7357 74.9118 75.3231 75.4907 75.0343C76.018 74.7385 76.5943 74.54 77.1919 74.4482C77.6827 74.3802 78.1824 74.4227 78.6546 74.5727C79.107 74.7233 79.5199 74.9731 79.8631 75.304C80.2362 75.6662 80.548 76.0867 80.7863 76.5488L78.8672 78.3019C78.6458 77.8375 78.2991 77.4442 77.8662 77.1661C77.6792 77.0503 77.4637 76.989 77.2438 76.989C77.0239 76.989 76.8084 77.0503 76.6214 77.1661C76.3869 77.2788 76.1917 77.4595 76.0612 77.6847C75.9546 77.8802 75.901 78.1001 75.9056 78.3227C75.9107 78.5501 75.9492 78.7755 76.0197 78.9918C76.0845 79.1994 76.1679 79.4008 76.2687 79.5934L80.2314 87.0001C80.3153 87.1552 80.4124 87.3027 80.5218 87.441C80.6428 87.5927 80.7904 87.721 80.9575 87.8196C81.1315 87.9193 81.3275 87.9745 81.528 87.9804C81.7723 87.9815 82.0123 87.917 82.2231 87.7937C83.0633 87.3407 83.1688 86.5108 82.5394 85.304C82.9544 85.1692 83.3693 85.0291 83.7791 84.8735L85.0031 84.4171C85.5494 85.3566 85.7338 86.4632 85.5218 87.5291C85.3669 88.0484 85.1012 88.5278 84.743 88.9343C84.3849 89.3409 83.9427 89.6649 83.4471 89.8839C82.2438 90.5271 81.1909 90.7034 80.2936 90.4026C79.2706 89.9954 78.444 89.2096 77.9855 88.2086Z" fill="#225AAA"/>
<path d="M87.8091 82.5187L82.5757 76.0301C82.1925 75.5657 81.8749 75.0509 81.6318 74.5001C81.42 74.0196 81.3105 73.5003 81.3102 72.9752C81.3202 72.4509 81.4611 71.9374 81.7199 71.4814C82.0342 70.9327 82.4537 70.4516 82.9544 70.0654C83.451 69.6428 84.0205 69.3142 84.6349 69.0955C85.1228 68.9328 85.6445 68.8989 86.1494 68.9969C86.6521 69.1097 87.1234 69.3329 87.5291 69.6505C88.0135 70.0309 88.4505 70.4679 88.8309 70.9523L93.9139 77.2542C94.8233 78.3745 95.2555 79.4275 95.2106 80.4129C95.1691 81.3932 94.6038 82.3268 93.5249 83.1982C92.4461 84.0696 91.4191 84.4482 90.4803 84.2978C89.3988 84.0595 88.4458 83.4248 87.8091 82.5187ZM89.8475 80.916C90.0986 81.2347 90.4376 81.4727 90.8226 81.6007C91.0303 81.6412 91.2444 81.6353 91.4495 81.5834C91.6547 81.5316 91.8458 81.4351 92.0093 81.3008C92.1728 81.1665 92.3047 80.9978 92.3954 80.8066C92.4862 80.6155 92.5336 80.4067 92.5342 80.1951C92.4651 79.7485 92.2729 79.33 91.9793 78.9866L86.6992 72.4772C86.4325 72.1395 86.087 71.8723 85.693 71.6992C85.4831 71.6244 85.2561 71.6115 85.039 71.6621C84.822 71.7126 84.6241 71.8246 84.4689 71.9845C84.26 72.1381 84.1056 72.3543 84.028 72.6017C83.9637 72.8154 83.953 73.0416 83.9969 73.2604C84.0496 73.4894 84.1352 73.7095 84.2511 73.914C84.356 74.1146 84.4812 74.304 84.6245 74.4793L89.8475 80.916Z" fill="#225AAA"/>
<path d="M92.1038 70.8745L87.1453 66.7251L88.7843 64.7697L93.4108 68.6598C93.5819 68.8438 93.7889 68.9908 94.0191 69.0916C94.2493 69.1925 94.4977 69.245 94.749 69.2459C95.1654 69.1614 95.5353 68.9247 95.7863 68.582C95.9251 68.4222 96.0467 68.2483 96.1494 68.0633C96.2646 67.853 96.3601 67.6325 96.4347 67.4046L90.6722 62.5654L92.3372 60.5789L105.029 71.2272L103.369 73.1826L98.2915 68.9243C98.1673 69.2309 98.0163 69.5259 97.8403 69.806C97.6856 70.0672 97.5122 70.3168 97.3216 70.5529C97.007 70.9518 96.6347 71.3014 96.2168 71.5903C95.8556 71.8327 95.4409 71.984 95.0083 72.0311C94.5496 72.0727 94.0875 72.0052 93.6598 71.834C93.0903 71.6051 92.5641 71.2806 92.1038 70.8745Z" fill="#225AAA"/>
<path d="M107.82 67.1244L93.2967 59.1265L94.5519 56.9169L100.589 60.2468L102.031 57.6534L95.9938 54.3236L97.2179 52.0933L111.741 60.0964L110.511 62.3267L104.168 58.8256L102.726 61.419L109.075 64.8941L107.82 67.1244Z" fill="#225AAA"/>
<path d="M109.837 54.4118L101.901 51.8651C101.326 51.6841 100.778 51.4258 100.273 51.0975C99.8314 50.8148 99.4548 50.4418 99.1681 50.0031C98.889 49.559 98.7234 49.0532 98.6857 48.53C98.647 47.8983 98.7352 47.2651 98.945 46.668C99.124 46.0409 99.4196 45.4532 99.8164 44.9356C100.132 44.5307 100.549 44.2159 101.025 44.0228C101.507 43.8384 102.025 43.7674 102.539 43.8153C103.154 43.8649 103.76 43.9886 104.344 44.1836L112.047 46.6576C113.43 47.1002 114.369 47.7434 114.863 48.5871C115.382 49.4325 115.413 50.5217 114.988 51.8443C114.562 53.167 113.914 54.0435 113.043 54.4377C112.008 54.828 110.865 54.8188 109.837 54.4118ZM110.662 51.9533C111.045 52.0826 111.458 52.0971 111.85 51.9948C112.046 51.9146 112.222 51.7921 112.365 51.636C112.508 51.4799 112.615 51.2941 112.678 51.0919C112.741 50.8897 112.758 50.676 112.729 50.4663C112.7 50.2565 112.624 50.0558 112.508 49.8786C112.208 49.54 111.818 49.2936 111.383 49.168L103.369 46.6006C102.962 46.4625 102.527 46.4304 102.104 46.5072C101.887 46.5579 101.69 46.67 101.535 46.8301C101.381 46.9901 101.275 47.1914 101.232 47.4097C101.153 47.6576 101.153 47.9242 101.232 48.1721C101.296 48.3859 101.411 48.5803 101.57 48.7375C101.737 48.9034 101.929 49.0417 102.14 49.1473C102.34 49.2517 102.548 49.3402 102.762 49.4118L110.662 51.9533Z" fill="#225AAA"/>
<path d="M113.151 42.9854L104.951 41.9481C104.368 41.8776 103.795 41.7366 103.245 41.5279C102.741 41.3414 102.283 41.0497 101.901 40.6721C101.524 40.2914 101.245 39.8252 101.087 39.3132C100.907 38.6882 100.865 38.0318 100.963 37.3889C101.029 36.7881 101.205 36.2045 101.481 35.6669C101.707 35.225 102.032 34.8414 102.431 34.5466C102.812 34.2618 103.254 34.0684 103.722 33.9813C104.236 33.8874 104.761 33.8752 105.278 33.945L105.594 36.5383C105.088 36.4543 104.568 36.5099 104.09 36.6991C103.888 36.7892 103.715 36.9342 103.592 37.1176C103.468 37.3009 103.398 37.5154 103.39 37.7365C103.344 37.993 103.378 38.2576 103.489 38.4937C103.585 38.6935 103.734 38.8637 103.919 38.9864C104.106 39.1136 104.311 39.2132 104.526 39.2821C104.735 39.3468 104.948 39.3954 105.164 39.4273L113.463 40.4647C113.635 40.4805 113.809 40.4805 113.981 40.4647C114.176 40.4538 114.368 40.4081 114.547 40.3298C114.727 40.2437 114.883 40.1156 115.003 39.9564C115.147 39.7589 115.233 39.5255 115.252 39.2821C115.373 38.3312 114.758 37.7658 113.406 37.586C113.54 37.1659 113.66 36.7458 113.769 36.3257L114.111 35.0601C115.197 35.1636 116.208 35.664 116.948 36.4657C117.281 36.8919 117.519 37.385 117.644 37.9113C117.77 38.4377 117.78 38.9848 117.674 39.5155C117.501 40.871 117.033 41.827 116.269 42.3837C115.346 42.9781 114.229 43.1936 113.151 42.9854Z" fill="#225AAA"/>
<path d="M104.028 32.9594L101.601 33.0839L101.206 25.1638L103.634 25.0393L103.769 27.7001L117.892 26.9999L118.022 29.5933L103.888 30.2935L104.028 32.9594Z" fill="#225AAA"/>
<path d="M117.207 20.3092L101.098 24.1889L100.501 21.72L110.709 19.2563L110.683 19.1578L99.6712 18.2812L99.0799 15.8279L115.19 11.9482L115.786 14.4223L105.693 16.8549V16.9223L116.585 17.8611L117.207 20.3092Z" fill="#225AAA"/>
<path d="M6.79772 66.2791L3.99689 64.1111L0.718879 65.4545L0.241699 68.9659L3.04253 71.1287L6.32054 69.7854L6.79772 66.2791Z" fill="#225AAA"/>
<path d="M100.231 3.72198L101.507 7.02074L105.008 7.56534L107.228 4.80601L105.952 1.50725L102.451 0.962646L100.231 3.72198Z" fill="#225AAA"/>
</svg>
