<svg width="203" height="90" viewBox="0 0 203 90" fill="none" xmlns="http://www.w3.org/2000/svg">
<path d="M78.37 65.61H70.76L66.93 89.2401H70.33L71.45 82.3501H76.11L77.11 89.2401H81.83L78.37 65.61ZM71.96 79.2L73.34 70.66H74.41L75.64 79.2H71.96Z" fill="white"/>
<path d="M130.84 65.61H123.23L119.4 89.2401H122.8L123.92 82.3501H128.58L129.58 89.2401H134.31L130.84 65.61ZM124.43 79.2L125.81 70.66H126.88L128.11 79.2H124.43Z" fill="white"/>
<path d="M53.22 69.17H57.53V89.2401H62.13V69.17H66.44L66.46 65.61H53.21L53.22 69.17Z" fill="white"/>
<path d="M151.43 69.17H155.74V89.2401H160.34V69.17H164.65L164.67 65.61H151.42L151.43 69.17Z" fill="white"/>
<path d="M104.13 89.2401C106.53 89.2401 115.07 89.2401 117.31 89.2401L117.33 85.65H116.06L113.12 65.61H105.29L102.15 85.65H100.83L100.84 89.2401H104.13ZM107.97 70.66H109.03L111.2 85.65H105.54L107.97 70.66Z" fill="white"/>
<path d="M45.55 89.51C48.02 89.6 51.19 88.86 51.19 88.86L50.65 85.79C46.18 86.63 41.9 85.55 42.24 77.42C42.01 68.1 44.97 68.47 50.56 69.34L50.72 65.55C34.05 60.44 32.85 88.93 45.55 89.51Z" fill="white"/>
<path d="M150.61 73.92C150.48 63.44 143.32 65.92 137.21 65.6V89.23H141.79V82.16C145.82 82.24 150.22 81.86 150.61 73.92ZM143.83 79.09C143.46 79.13 142.15 79.12 141.79 79.09V68.63C142.26 68.63 143.6 68.65 143.9 68.71C146.14 67.97 146.37 79.56 143.83 79.09Z" fill="white"/>
<path d="M93.66 74.8801H88.97V65.61H84.42V89.2401H88.97V78.01H93.66V89.2401H98.24V65.61H93.66V74.8801Z" fill="white"/>
<path d="M42.21 34.29H34.6L30.77 57.92H34.17L35.29 51.03H39.95L40.95 57.92H45.68L42.21 34.29ZM35.79 47.88L37.17 39.34H38.24L39.47 47.88H35.79Z" fill="white"/>
<path d="M75.28 45.34V57.92H79.9V34.29H75.47L70.28 46.96H70.18V34.29H65.58V57.92H69.98L75.14 45.34H75.28Z" fill="white"/>
<path d="M116.55 45.34V57.92H121.16V34.29H116.73L111.55 46.96H111.44V34.29H106.84V57.92H111.25L116.4 45.34H116.55Z" fill="white"/>
<path d="M180.51 45.34V57.92H185.12V34.29H180.69L175.51 46.96H175.4V34.29H170.8V57.92H175.21L180.36 45.34H180.51Z" fill="white"/>
<path d="M10.65 41.83C15.61 38.42 13.09 27.88 6.81 28.71H0C0 29.74 0 56.14 0 57.92H7.08C14.5 59.16 17.43 44.94 10.65 41.83ZM4.64 31.86C7.12 31.74 8.84999 31.79 9.00999 35.98C8.84999 40.52 7.47 40.98 4.64 40.76V31.86ZM6.77 54.77H4.64V43.92L6.61 43.91C10.58 43.13 10.24 55.77 6.77 54.77Z" fill="white"/>
<path d="M197.65 45.3402V57.9202H202.26V34.2902H197.83L192.65 46.9602H192.54V34.2902H187.94V57.9202H192.35L197.5 45.3402H197.65Z" fill="white"/>
<path d="M198.84 28.7102H192.62V32.3302H198.05L198.84 28.7102Z" fill="white"/>
<path d="M50.22 57.92C52.62 57.92 61.16 57.92 63.4 57.92L63.42 54.33H62.15L59.21 34.29H51.38L48.24 54.33H46.92L46.93 57.92H50.22ZM54.06 39.34H55.12L57.29 54.33H51.63L54.06 39.34Z" fill="white"/>
<path d="M18.09 36.92C18.09 48.97 14.29 56.44 14.29 56.44L17.83 58.55C17.83 58.55 21.37 49.91 21.37 37.43H24.63V57.91H29.24V34.28H18.09V36.92Z" fill="white"/>
<path d="M146.92 58.19C149.39 58.28 152.56 57.54 152.56 57.54L152.02 54.47C147.55 55.31 143.27 54.23 143.61 46.1C143.38 36.78 146.34 37.15 151.93 38.02L152.09 34.23C135.41 29.12 134.22 57.61 146.92 58.19Z" fill="white"/>
<path d="M137.5 42.6C137.37 32.12 130.21 34.6 124.1 34.28V57.91H128.68V50.84C132.7 50.92 137.1 50.55 137.5 42.6ZM130.71 47.77C130.34 47.81 129.03 47.8 128.67 47.77V37.31C129.14 37.31 130.48 37.33 130.78 37.39C133.03 36.65 133.26 48.24 130.71 47.77Z" fill="white"/>
<path d="M164.82 44.54C166.57 43.54 167.87 33.8 167.99 34.29H163.62C163.62 34.29 162.8 39.22 162.27 41.86C162 44.18 160.47 43.39 159 43.53V34.29H154.41V57.92H159V46.63C161.02 46.58 162.15 46.3 162.54 49.27C163.19 52.5 164.14 57.93 164.14 57.93H168.95C168.65 58.17 167.7 45.84 164.82 44.54Z" fill="white"/>
<path d="M102.59 34.29H96.49L93.48 50.39H93.31L90.46 34.29H84.43L82.38 57.92H85.92L87.08 42.96H87.27L89.92 57.92H95.53L98.34 42.96H98.5L99.65 57.92H104.42L102.59 34.29Z" fill="white"/>
<path d="M109.4 0.25L87.99 5.19C86.17 11.62 83.19 22.12 81.38 28.49L86.86 19.36L105.18 15.14L109.4 0.25ZM123.87 0L112.29 2.67L107.89 16.14L102.97 18.72L119.64 14.88L114.72 9L123.87 0Z" fill="white"/>
</svg>
