<svg width="36" height="30" viewBox="0 0 36 30" fill="none" xmlns="http://www.w3.org/2000/svg">
<path d="M18.8667 23.9955C17.5568 25.0607 16.5133 26.4128 15.1598 27.4962C15.0296 27.6096 14.8706 27.681 14.7021 27.7017C14.5337 27.7224 14.3631 27.6915 14.2113 27.6128C14.0594 27.5341 13.9328 27.411 13.8469 27.2585C13.761 27.1061 13.7195 26.9308 13.7276 26.7542C13.8149 25.0152 14.0158 23.2807 14.0594 21.5372C14.0987 20.1077 14.7712 19.17 15.7623 18.2822C19.9408 14.5175 24.0844 10.7071 28.2324 6.90137C28.4987 6.66009 28.7127 6.40972 28.538 6.15478C28.3634 5.89985 27.9268 6.05918 27.5469 6.29135C21.8533 9.77845 16.1553 13.2656 10.4791 16.8164C10.042 17.1457 9.52976 17.3496 8.99345 17.4079C8.45713 17.4663 7.91552 17.3769 7.4227 17.1487C5.67619 16.4112 3.84671 15.8968 2.05217 15.2868C1.84091 15.2366 1.63363 15.1696 1.43216 15.0865C0.799047 14.7587 -0.130971 14.4992 1.73608e-05 13.6252C0.0829767 13.1335 0.825245 12.61 1.37976 12.387C5.05617 10.9256 8.73258 9.52808 12.4265 8.11229C19.1724 5.52201 25.9139 2.91806 32.6642 0.350534C33.2576 0.0869974 33.9027 -0.0253603 34.5461 0.0227647C35.7162 0.200306 36.2402 1.36571 35.904 2.87709C35.3014 5.68589 34.6596 8.48559 34.057 11.2853C32.9363 16.3748 31.8171 21.4643 30.6994 26.5539C30.6033 27.0091 30.5072 27.437 30.3981 27.8786C29.8392 30.1821 28.7171 30.61 26.8046 29.1715C24.6215 27.5417 22.4645 25.8619 20.2989 24.2049L19.9365 23.9499C19.7763 23.8391 19.5866 23.7838 19.3945 23.7919C19.2024 23.8001 19.0177 23.8713 18.8667 23.9955Z" fill="#225AAA"/>
</svg>