<svg width="40" height="22" viewBox="0 0 40 22" fill="none" xmlns="http://www.w3.org/2000/svg">
<path d="M14.104 1.92685C14.002 1.83149 13.9266 1.71155 13.8852 1.57872C13.8438 1.44588 13.8379 1.30469 13.8679 1.16889C13.898 1.03309 13.963 0.907333 14.0566 0.803864C14.1503 0.700394 14.2694 0.622748 14.4023 0.578492C16.7287 -0.101006 19.1915 -0.180354 21.5574 0.347966C22.9744 0.674182 23.3122 1.12218 23.356 2.63583C23.356 4.3017 23.3122 5.96758 23.299 7.63345C23.2723 8.21388 23.2899 8.79547 23.3516 9.37327C23.5315 10.5868 24.4528 10.9652 25.3521 10.1823C25.9095 9.71372 26.3918 9.16372 26.7822 8.55121C27.8518 6.92143 28.8187 5.22768 29.6776 3.47964C30.4278 1.83116 31.3753 0.956902 33.3144 1.14393C34.977 1.30922 36.6747 1.11784 38.3505 1.17873C39.9562 1.23527 40.4256 1.90945 39.6008 3.24476C38.2847 5.41954 36.7318 7.42467 35.2709 9.49506C34.8322 10.0866 34.3497 10.6216 33.9548 11.2349C33.1827 12.4354 33.2047 12.8355 34.2312 13.9011C35.5473 15.2626 36.9336 16.5413 38.2453 17.8984C38.7996 18.4707 39.28 19.1092 39.6754 19.7991C40.2369 20.7952 39.9693 21.3737 38.877 21.7477C38.463 21.8753 38.0336 21.947 37.6004 21.9609C35.9772 21.9957 34.3497 22.0348 32.7221 22.0087C30.8094 21.9783 29.5021 20.8082 28.2606 19.5425C27.5887 18.7851 26.8708 18.069 26.111 17.3982C25.1678 16.6457 24.5712 16.7327 23.9614 17.7809C23.6082 18.5296 23.3956 19.3359 23.3341 20.1601C23.2606 20.63 23.0283 21.0611 22.6751 21.3828C22.322 21.7044 21.8691 21.8976 21.3907 21.9304C18.7037 22.1808 16.0005 21.6647 13.5995 20.4429C10.1558 18.703 7.74296 15.9019 5.7469 12.7703C3.83859 9.78648 2.23736 6.62436 0.482591 3.53183C0.291836 3.22399 0.144249 2.89182 0.0438984 2.54449C-0.149126 1.72677 0.144798 1.23962 0.965153 1.20048C2.86031 1.13088 4.75984 1.14828 6.66816 1.16133C7.58064 1.16133 8.08952 1.72242 8.48435 2.50099C9.36173 4.24081 10.2698 5.98063 11.235 7.6813C11.6855 8.50861 12.2381 9.27714 12.88 9.96916C13.231 10.3345 14.0119 10.6868 14.3628 10.565C15.521 10.1518 15.5122 8.52946 15.5254 8.23804C15.5254 7.65955 15.5605 7.08106 15.5605 6.49822C15.578 3.71451 15.578 3.35785 14.104 1.92685Z" fill="#225AAA"/>
</svg>