<svg width="271" height="297" viewBox="0 0 271 297" fill="none" xmlns="http://www.w3.org/2000/svg">
<path d="M170.283 72.1311C170.502 67.7929 170.23 63.4242 172.129 59.3135C176.57 49.6889 187.692 51.0996 192.731 56.1205C195.001 58.3958 195.288 61.4295 194.789 64.5543C193.942 69.7951 191.226 74.1941 188.54 78.6537C186.956 81.2575 185.654 84.0239 184.658 86.9056C183.758 89.5828 184.991 91.4562 187.632 92.4725C192.345 94.3459 197.74 93.3902 201.076 89.2946C203.74 86.0182 205.798 82.2032 207.818 78.4565C210.171 74.0727 211.903 69.3552 214.415 65.0549C221.452 53.0791 237.113 54.5656 244.059 63.7731C247.766 68.6575 248.054 74.0955 245.458 79.5411C241.306 88.2753 234.527 95.4849 226.074 100.156C222.246 102.34 218.334 104.365 214.559 106.633C210.504 109.06 207.394 112.351 205.949 117.016C203.308 125.548 209.225 132.26 217.994 130.455C221.974 129.636 225.84 128.248 229.774 127.156C235.66 125.525 240.79 126.701 244.793 131.525C249.098 136.712 250.664 142.469 248.243 149.029C246.525 153.686 243.34 157.372 240.412 161.248C237.484 165.124 234.359 169.029 231.439 172.973C229.041 176.085 227.659 179.861 227.482 183.789C227.247 189.803 230.425 194.225 236.334 195.499C240.245 196.341 244.278 196.576 248.25 197.145C251.158 197.487 254.047 197.975 256.906 198.609C264.895 200.603 269.011 206.155 270.471 213.997C270.714 215.385 270.873 216.785 270.948 218.192C271.455 225.814 268.255 230.38 260.969 232.716C257.365 233.947 253.546 234.421 249.751 234.106C245.956 233.792 242.267 232.696 238.914 230.888C236.644 229.705 234.374 228.567 232.18 227.24C224.364 222.477 216.239 222.014 207.75 225.169C198.996 228.423 191.975 233.459 188.714 242.742C186.013 250.395 186.739 257.335 192.149 263.728C194.72 266.643 196.886 269.893 198.587 273.391C201.757 280.316 199.155 290.077 193.442 294.271C188.35 297.98 182.85 297.487 177.403 295.295C172.25 293.224 170.593 288.666 169.897 283.668C169.632 281.06 169.518 278.439 169.557 275.818C169.505 272.006 168.019 268.354 165.395 265.594C159.002 258.518 150.899 254.392 141.895 251.889C136.711 250.36 131.447 249.114 126.128 248.158C119.788 247.134 114.393 249.674 110.179 254.324C106.139 258.753 102.469 263.524 98.6332 268.143C97.2032 269.857 95.8338 271.631 94.2903 273.247C87.7231 280.133 80.1495 281.764 71.2293 278.419C64.4577 275.886 60.2057 271.1 58.6546 264.108C57.5954 259.292 58.8513 254.582 60.3116 249.985C63.1261 241.097 69.6404 236.076 78.0765 233.11C80.2403 232.352 82.3966 231.593 84.5605 230.789C90.3485 228.719 93.9574 224.661 94.994 218.609C96.7168 208.95 96.4179 199.037 94.1163 189.5C93.2502 186.057 91.2904 182.99 88.5326 180.763C77.8571 171.661 65.8347 169.985 52.8515 174.399C46.7534 176.47 40.8443 179.109 34.6932 181.043C27.1325 183.472 18.9466 183.046 11.6775 179.845C3.8392 176.508 -0.23886 170.031 0.010817 161.536C0.525303 144.615 15.8313 131.373 32.5445 133.474C37.3675 134.065 42.0251 135.612 46.2464 138.024C50.8995 140.671 55.4845 143.516 60.3721 145.662C69.4359 149.713 79.6198 150.49 89.1909 147.861C90.2444 147.59 91.2607 147.19 92.2173 146.671C94.6232 145.336 94.7519 142.939 92.4064 141.536C90.6299 140.536 88.7782 139.676 86.8681 138.965C81.8443 136.932 76.7297 135.112 71.774 132.897C67.4993 131.009 63.7087 128.347 62.1198 123.606C59.0481 114.407 64.2459 102.127 76.8811 101.915C78.978 101.838 81.0614 102.282 82.9453 103.209C84.8292 104.135 86.4551 105.515 87.6777 107.224C89.9021 110.258 91.7482 113.557 93.7305 116.781C94.9486 118.798 95.9473 120.967 97.2259 122.947C101.228 129.143 107.236 130.023 112.819 125.169C118.403 120.315 119.984 113.876 119.084 106.754C117.858 97.0762 113.41 88.6424 108.756 80.3071C102.195 68.8156 96.2375 56.988 90.9084 44.8728C86.2856 34.0802 87.5264 23.6364 91.9298 13.261C95.5387 4.78919 102.704 1.12592 111.442 0.223376C115.456 -0.322595 119.542 0.135998 123.336 1.55823C132.06 5.0774 135.911 12.1006 137.189 20.9591C138.408 29.4158 136.259 37.4401 134.224 45.525C132.529 52.26 130.804 59.0404 129.858 65.9043C128.806 73.5797 130.773 80.9063 134.602 87.6412C136.092 90.2926 138.457 92.3413 141.29 93.4357C146.333 95.5187 151.836 96.2253 157.239 95.4835C165.131 94.3231 169.61 89.5146 170.26 81.5282C170.495 78.4186 170.283 75.2635 170.283 72.1311Z" fill="white"/>
</svg>
