<svg width="731" height="301" viewBox="0 0 731 301" fill="none" xmlns="http://www.w3.org/2000/svg">
<g clip-path="url(#clip0_263_11)" filter="url(#filter0_d_263_11)">
<g filter="url(#filter1_d_263_11)">
<path d="M598.397 49.8233L624.169 44.3872C626.456 43.3492 628.315 41.498 629.757 38.8335C631.21 36.169 632.023 33.5045 632.226 30.8292C632.418 28.1647 632.108 25.757 631.296 23.6062C630.473 21.4553 629.127 20.3852 627.246 20.3745L599.028 29.7057C597.147 30.6152 595.523 32.7661 594.155 36.1476C592.798 39.529 592.392 42.7179 592.969 45.7141C593.546 48.7104 595.352 50.0801 598.387 49.8233H598.397Z" fill="white"/>
<path d="M205.163 139.314C220.71 138.159 235.049 133.3 247.774 124.879C254.506 120.427 261.312 113.878 268.14 105.425C273.418 110.957 280.769 113.14 290.236 111.877C301.466 110.379 317.354 105.318 327.505 86.8586C331.105 79.8175 333.328 72.8619 334.161 66.0134C335.005 59.1648 334.503 53.2366 332.676 48.2393C330.838 43.242 327.665 39.3362 323.145 36.5325C318.626 33.7289 313.155 32.6374 306.755 33.2581C296.529 34.264 287.49 38.2554 279.637 45.2323C271.783 52.2093 266.473 62.1076 263.695 74.9379C261.964 83.1347 261.74 89.9512 262.968 95.4407C260.938 97.399 258.833 99.2716 256.643 101.016C247.133 108.571 237.966 113.258 229.386 114.938C217.291 117.335 207.931 114.98 201.584 107.95C195.226 100.92 193.549 89.3091 196.605 73.4291C199.233 59.5822 202.674 48.6459 206.841 40.952C211.542 32.2522 216.03 27.8969 220.539 27.6294C223.135 27.4796 225.112 28.7102 225.956 31.0216C226.629 32.8621 226.597 35.1414 225.881 37.9986C225.326 40.1815 224.727 42.2789 224.108 44.2478C223.488 46.2168 222.719 48.3677 221.757 50.8503C221.116 52.5196 220.71 53.6111 220.464 54.3495C221.383 56.6822 224.236 60.7165 235.957 59.411C245.402 58.3623 252.508 54.5742 257.669 47.8433C259.506 43.3383 260.361 38.2875 260.212 32.8086C260.051 26.9232 259.164 21.4871 257.583 16.6504C256.109 12.1346 252.871 8.18598 247.967 4.91152C242.988 1.61566 236.459 -0.0429726 228.552 0.0105316H228.52C226.939 0.0105316 225.368 0.053335 223.83 0.138942C205.633 1.20903 190.14 9.00995 176.581 23.8948C161.954 39.9675 153.321 59.3682 150.927 81.5724C148.683 102.032 152.776 117.206 163.076 126.698C173.536 136.329 187.683 140.577 205.153 139.314H205.163ZM291.689 70.1867C292.961 64.8256 294.724 60.5987 296.967 57.4741C299.211 54.3494 301.231 52.6694 303.036 52.434C305.441 52.2307 306.765 54.5956 307 59.518C307.236 64.4404 306.552 70.2402 304.97 76.9068C303.453 82.3215 302.47 85.9919 299.884 89.7372C298.559 91.4065 296.903 92.6692 294.991 92.926C292.384 93.2684 290.813 90.8608 290.279 85.6815C289.744 80.513 290.215 75.3445 291.689 70.1867Z" fill="white"/>
<path d="M427.312 92.7657C431.96 92.9584 436.8 92.3163 441.822 90.8396C446.844 89.3629 449.526 87.7898 449.846 86.1205C452.614 74.157 454.473 65.7354 455.445 60.8451L465.67 59.4968C465.564 59.8606 465.457 60.3957 465.35 61.1019C465.243 61.8082 465.136 62.3432 465.029 62.707C463.32 70.936 463.854 77.1853 466.653 81.4549C469.453 85.7246 475.159 87.0515 483.792 85.4464C495 83.4132 505.055 75.4625 513.966 61.7868C514.767 65.5749 516.22 68.7744 518.411 71.2998C523.732 77.4314 531.361 79.8498 541.287 78.5336C552.517 77.0462 568.405 72.0061 578.556 53.6113C582.157 46.5916 584.368 39.6574 585.212 32.8303C586.057 26.0031 585.554 20.0963 583.727 15.1097C581.889 10.1231 578.716 6.23866 574.196 3.43504C569.677 0.642116 564.206 -0.449371 557.795 0.160578C547.57 1.15576 538.53 5.13647 530.677 12.0813C522.824 19.0369 517.513 28.9031 514.735 41.6799C514.425 43.1352 514.19 44.5263 513.977 45.896C513.945 45.9281 513.902 45.9388 513.88 45.9709C507.715 57.6776 502.031 63.8841 496.817 64.569C495.31 64.7723 494.391 64.1945 494.06 62.8462C493.729 61.4979 493.836 59.1651 494.381 55.8478C494.712 53.4829 495.364 50.1549 496.315 45.8532C497.276 41.5515 498.569 36.0512 500.215 29.3418C501.86 22.6324 503.153 17.1321 504.115 12.8304C502.352 9.82345 497.896 8.37883 490.737 8.50724C483.578 8.63565 478.877 9.95186 476.644 12.4452C474.635 20.2461 472.359 29.6521 469.806 40.6526L459.73 41.9795C462.828 27.7688 464.634 19.5826 465.168 17.4318C464.004 14.7993 459.986 13.4724 453.137 13.451C446.278 13.4296 441.127 14.7458 437.698 17.3996C436.009 24.1198 433.349 35.6339 429.727 51.9527C426.105 68.2715 423.241 80.631 421.115 89.0311C420.591 91.3104 422.643 92.541 427.301 92.7336L427.312 92.7657ZM542.751 36.9715C544.022 31.6318 545.775 27.4049 548.029 24.291C550.273 21.177 552.292 19.5077 554.109 19.2723C556.513 19.069 557.838 21.4232 558.073 26.3349C558.308 31.2465 557.624 37.025 556.043 43.6702C554.526 49.0635 553.543 52.7339 550.957 56.4577C549.632 58.1271 547.976 59.3791 546.063 59.6359C543.456 59.9783 541.885 57.5706 541.351 52.4128C540.817 47.255 541.287 42.1079 542.762 36.9715H542.751Z" fill="white"/>
<path d="M150.083 152.53C143.608 153.086 139.334 154.638 137.251 157.153C132.966 171.706 127.666 187.286 121.341 203.905C115.015 220.523 109.641 233.289 105.207 242.203C103.529 245.477 102.033 247.275 100.741 247.596C99.437 247.917 98.6249 246.483 98.2937 243.305C96.9581 229.287 99.6293 203.188 106.307 164.996C105.773 162.193 101.852 160.994 94.522 161.39C87.1922 161.797 84.927 162.257 82.5122 165.66C79.6807 169.64 75.0115 185.745 75.0115 185.745C66.1324 213.653 58.0653 235.151 50.8317 250.25C43.5874 265.349 37.7641 273.139 33.3513 273.61C31.5456 273.781 30.1886 273.128 29.2697 271.662C28.3508 270.186 28.1798 268.099 28.7568 265.402C29.3338 262.706 30.7656 259.956 33.0521 257.163C33.3299 254.338 31.9195 251.727 28.8423 249.33C25.7544 246.933 22.7092 246.077 19.7068 246.794C15.4969 247.703 12.0778 249.918 9.44932 253.46C6.82085 257.002 5.1647 260.769 4.50224 264.75C3.83978 268.741 3.87184 272.465 4.60909 275.932C5.66689 281.785 8.42358 286.301 12.8685 289.469C17.3134 292.636 23.3076 293.674 30.8297 292.593C35.0395 291.919 38.9929 290.71 42.7005 288.966C46.3975 287.221 49.6136 285.263 52.3596 283.08C55.1056 280.908 57.7875 278.019 60.416 274.423C63.0444 270.828 65.1921 267.532 66.8803 264.546C68.5578 261.561 70.3742 257.655 72.3403 252.829C74.3063 248.003 75.8235 244.033 76.9027 240.908C77.9818 237.784 79.3922 233.546 81.1552 228.174L81.604 228.099C80.2577 235.14 79.7128 243.327 79.9479 252.658C80.1829 261.989 81.6254 268.238 84.2645 271.406C87.6089 275.386 92.0004 276.767 97.4069 275.558C102.824 274.348 107.76 270.849 112.227 265.049C118.67 256.51 125.016 241.561 131.246 220.223L131.695 220.149C129.109 233.974 127.26 245.285 126.138 254.07C125.016 262.866 124.589 271.459 124.867 279.859C125.593 282.053 128.158 283.091 132.581 282.963C136.994 282.834 141.428 281.7 145.884 279.549C150.329 277.398 152.893 274.883 153.566 271.994C153.235 268.581 153.021 264.974 152.936 261.165C152.85 257.366 152.915 253.161 153.118 248.559C153.321 243.958 153.513 239.774 153.684 235.986C153.844 232.208 154.229 227.489 154.827 221.839C155.426 216.189 155.917 211.727 156.28 208.431C156.654 205.135 157.263 200.363 158.107 194.092C158.952 187.832 159.539 183.455 159.87 180.983C160.202 178.501 160.832 174.006 161.772 167.5C162.713 160.994 163.279 157.035 163.471 155.612C161.035 152.99 156.579 151.963 150.115 152.519L150.083 152.53Z" fill="white"/>
<path d="M230.946 192.262C229.129 187.532 226.052 183.862 221.703 181.272C217.355 178.683 212.13 177.72 206.029 178.415C196.295 179.539 187.726 183.477 180.332 190.24C172.938 197.003 168.001 206.516 165.533 218.758C162.969 231.791 164.262 241.197 169.412 246.965C174.562 252.733 181.87 254.916 191.316 253.503C202.001 251.909 217.088 246.837 226.522 229.105C229.856 222.342 231.886 215.686 232.591 209.159C233.297 202.621 232.752 196.992 230.935 192.262H230.946ZM204.907 219.977C203.539 225.157 202.652 228.667 200.227 232.273C198.987 233.889 197.417 235.119 195.611 235.387C193.132 235.761 191.604 233.482 191.027 228.57C190.45 223.648 190.824 218.725 192.16 213.803C193.303 208.688 194.927 204.622 197.021 201.615C199.116 198.608 201.028 196.981 202.749 196.725C205.035 196.489 206.328 198.726 206.616 203.402C206.905 208.089 206.339 213.61 204.907 219.988V219.977Z" fill="white"/>
<path d="M375.971 157.399C371.622 154.809 366.398 153.857 360.297 154.531C350.563 155.644 341.993 159.582 334.61 166.323C327.216 173.076 322.28 182.567 319.812 194.798C319.416 196.789 319.149 198.661 318.936 200.47C312.375 211.631 306.37 217.591 300.921 218.297C296.54 218.843 294.296 214.252 294.179 204.525C294.061 194.809 295.611 183.07 298.805 169.309C299.019 167.179 296.583 165.96 291.508 165.66C286.432 165.36 281.058 165.917 275.395 167.308C269.732 168.71 266.206 170.336 264.817 172.198C249.869 193.129 238.821 216.254 231.673 241.572C231.352 242.62 231.512 243.476 232.153 244.151C234.183 246.28 239.419 246.334 247.871 244.29C255.136 242.535 259.09 240.566 259.731 238.361C263.353 225.306 267.349 212.701 271.73 200.545L272.05 200.502C269.817 214.67 270.031 224.91 272.713 231.203C275.384 237.505 281.111 239.774 289.873 238.019C300.579 235.986 310.462 228.271 319.566 215.066C320.41 218.19 321.788 220.823 323.69 222.952C328.84 228.72 336.149 230.892 345.594 229.49C356.279 227.896 371.366 222.845 380.801 205.157C384.134 198.404 386.165 191.77 386.87 185.242C387.575 178.715 387.03 173.097 385.214 168.367C383.397 163.648 380.32 159.988 375.971 157.388V157.399ZM359.175 196.029C357.807 201.197 356.92 204.707 354.495 208.303C353.255 209.919 351.685 211.138 349.879 211.406C347.4 211.781 345.872 209.501 345.295 204.6C344.718 199.689 345.092 194.777 346.428 189.855C347.571 184.75 349.184 180.695 351.289 177.688C353.383 174.691 355.296 173.054 357.016 172.808C359.303 172.583 360.596 174.798 360.884 179.475C361.173 184.151 360.606 189.673 359.175 196.029Z" fill="white"/>
<path d="M361.077 84.5367C369.101 83.0921 376.57 78.0413 383.504 69.395C382.959 71.6208 382.414 73.9001 381.933 75.8904C380.427 80.9198 368.203 125.286 405.066 117.453C410.227 116.286 409.49 114.392 409.041 113.75C404.372 108.389 404.831 98.298 409.458 77.2601C409.639 76.5004 413.304 60.8343 415.42 52.4235C415.58 51.8242 415.73 51.0966 415.879 50.3368C416.36 48.3892 416.851 46.4096 417.375 44.3229C417.728 43.0067 418.091 41.6477 418.476 40.2245C420.281 33.5258 421.724 28.0255 422.792 23.7345C421.115 20.7168 416.702 19.2615 409.554 19.3685C402.406 19.4755 397.694 20.7703 395.396 23.2529C393.58 29.6628 391.55 37.2283 389.317 45.7996C383.461 57.2495 378.183 63.2848 373.471 63.8841C372.103 64.0553 371.281 63.4667 371.024 62.1184C370.757 60.7594 370.917 58.4266 371.505 55.1201C371.868 52.7552 372.541 49.4379 373.524 45.1469C373.973 43.21 374.497 40.9843 375.084 38.5445C375.223 37.9666 375.362 37.4102 375.512 36.8002C376.313 33.6007 377.029 30.69 377.67 28.0362C377.766 27.6403 377.852 27.2551 377.937 26.8698C376.42 23.8308 372.392 22.3113 365.874 22.3113C359.356 22.3113 355.04 23.5312 352.945 25.9924C352.368 28.1753 351.781 30.4867 351.161 32.9158C350.637 35.0346 344.718 61.2089 344.665 61.4015C342.891 69.609 343.212 75.8797 345.637 80.2029C348.062 84.5367 353.202 85.9813 361.077 84.5367Z" fill="white"/>
<path d="M458.864 140.138C451.716 140.267 447.004 141.583 444.707 144.076C442.89 150.486 440.86 158.041 438.627 166.612C432.772 178.062 427.493 184.119 422.781 184.729C421.414 184.911 420.591 184.322 420.324 182.974C420.057 181.626 420.217 179.293 420.805 175.986C421.168 173.632 421.841 170.304 422.835 166.024C423.284 164.087 423.807 161.861 424.395 159.421C424.544 158.844 424.673 158.287 424.822 157.677C425.624 154.488 426.339 151.567 426.98 148.924C427.077 148.528 427.162 148.143 427.248 147.757C425.72 144.729 421.702 143.231 415.184 143.252C408.667 143.284 404.35 144.515 402.256 146.976C401.679 149.159 401.091 151.46 400.471 153.889C399.948 156.008 394.028 182.161 393.964 182.353C392.191 190.55 392.511 196.81 394.937 201.133C397.362 205.446 402.502 206.869 410.376 205.392C418.401 203.926 425.88 198.843 432.814 190.186C432.269 192.412 431.725 194.691 431.244 196.671C429.737 201.7 417.514 246.045 454.376 238.083C459.537 236.906 458.8 235.012 458.351 234.37C453.682 229.03 454.141 218.961 458.768 197.934C458.939 197.174 462.614 181.519 464.73 173.108C464.89 172.509 465.04 171.781 465.189 171.021C465.67 169.084 466.162 167.094 466.685 165.007C467.038 163.691 467.401 162.332 467.786 160.909C469.592 154.21 471.034 148.721 472.103 144.429C470.425 141.423 466.012 139.989 458.864 140.117V140.138Z" fill="white"/>
<path d="M721.925 154.295L721.871 154.338C721.519 154.616 721.177 154.916 720.814 155.184C714.21 160.042 708.077 162.225 702.436 161.711C696.783 161.208 693.46 158.073 692.467 152.294C700.128 151.642 706.742 149.341 712.33 145.371C717.918 141.412 722.224 136.136 724.874 129.619C726.423 125.874 727.075 122.674 727 119.015C726.925 115.355 726.348 112.081 725.259 109.202C724.169 106.323 721.989 104.098 718.741 102.525C715.482 100.952 711.486 100.545 706.731 101.283C695.565 102.996 686.034 108.774 678.181 118.597C670.328 128.431 666.064 139.443 665.391 151.652C665.37 152.102 665.381 152.519 665.37 152.968C660.22 161.358 655.615 165.991 651.597 166.741C650.198 166.997 649.396 166.462 649.182 165.135C648.969 163.808 649.225 161.476 649.952 158.137C650.422 155.772 651.266 152.348 652.495 147.896C653.723 143.445 655.326 137.773 657.303 130.893C659.28 124.012 660.861 118.405 662.047 114.071C660.626 111.139 656.608 109.887 649.984 110.326C643.359 110.764 638.936 112.273 636.703 114.863C630.377 136.842 626.563 150.357 625.259 155.398L625.013 156.243C621.669 165.617 618.239 169.726 613.752 172.155C614.029 171.545 614.318 170.935 614.66 170.272C618.784 159.56 619.874 150.614 617.951 143.434C616.017 136.254 611.989 133.011 605.866 133.696C600.951 134.274 596.752 136.832 593.29 141.358C593.771 139.785 595.587 133.9 598.75 123.712C598.771 120.962 595.192 119.807 588.022 120.224C580.853 120.652 576.013 122.182 573.523 124.815C573.374 125.532 573.213 126.216 573.032 126.88C572.85 127.543 572.583 128.367 572.23 129.341C568.982 141.155 566.482 150.903 564.74 158.608C564.494 159.678 564.313 160.662 564.099 161.69C564.024 161.765 563.917 161.797 563.853 161.893C557.763 173.61 552.132 179.913 546.971 180.801C545.486 181.058 544.567 180.534 544.236 179.218C543.905 177.912 544.001 175.611 544.546 172.337C544.866 170.004 545.507 166.708 546.448 162.449C547.388 158.191 548.67 152.744 550.284 146.088C551.897 139.443 553.179 133.985 554.119 129.726C552.367 126.837 547.944 125.596 540.849 126.013C533.754 126.441 529.096 127.929 526.884 130.475C524.907 138.212 522.663 147.543 520.152 158.447C516.819 159.025 513.496 159.614 510.162 160.192C513.207 146.12 514.981 138.009 515.504 135.869C514.34 133.343 510.365 132.22 503.57 132.498C496.774 132.787 491.677 134.317 488.269 137.078C486.602 143.744 483.984 155.162 480.426 171.32C476.868 187.489 474.037 199.742 471.953 208.067C471.43 210.325 473.47 211.438 478.086 211.427C482.702 211.406 487.489 210.56 492.468 208.88C497.447 207.2 500.097 205.542 500.407 203.894C503.121 192.037 504.959 183.691 505.909 178.854C509.286 178.255 512.662 177.666 516.049 177.078C515.943 177.441 515.836 177.966 515.729 178.672C515.622 179.378 515.515 179.903 515.408 180.266C513.72 188.41 514.276 194.52 517.054 198.586C519.832 202.653 525.495 203.712 534.043 201.775C544.418 199.474 553.799 192.241 562.176 180.095C563.041 192.947 570.264 198.158 583.866 195.718C592.863 194.135 600.47 190.004 606.71 183.38C612.811 182.107 618.816 177.377 620.953 175.012C620.237 186.569 625.932 190.454 638.198 188.067C648.873 185.991 657.677 177.848 666.631 164.311C667.795 168.26 669.697 171.599 672.401 174.317C677.604 179.571 685.586 181.144 696.335 179.046C710.642 176.2 719.264 168.346 724.318 161.283C724.5 161.037 724.649 160.791 724.81 160.545C727.417 156.318 725.237 154.317 724.478 153.643C723.538 152.819 721.925 154.242 721.925 154.242V154.295ZM696.794 126.077C698.899 122.086 700.972 119.881 703.023 119.453C704.508 119.143 705.053 120.759 704.637 124.29C704.231 127.597 702.949 130.732 700.769 133.696C698.6 136.671 695.961 138.651 692.873 139.625C693.386 134.584 694.689 130.058 696.794 126.067V126.077ZM597.628 160.416C595.651 161.133 594.123 162.417 593.076 164.269C592.019 166.12 591.495 167.939 591.506 169.705C591.506 171.481 591.837 172.872 592.499 173.889C590.491 176.211 588.696 177.516 587.125 177.805C585.544 178.105 584.507 176.928 584.016 174.274C583.524 171.62 584.005 167.875 585.458 163.027C588.268 156.104 591.207 152.348 594.284 151.781C595.491 151.556 596.528 152.187 597.382 153.685C598.237 155.184 598.323 157.431 597.639 160.406L597.628 160.416Z" fill="white"/>
</g>
</g>
<defs>
<filter id="filter0_d_263_11" x="0" y="0" width="731" height="301" filterUnits="userSpaceOnUse" color-interpolation-filters="sRGB">
<feFlood flood-opacity="0" result="BackgroundImageFix"/>
<feColorMatrix in="SourceAlpha" type="matrix" values="0 0 0 0 0 0 0 0 0 0 0 0 0 0 0 0 0 0 127 0" result="hardAlpha"/>
<feOffset dy="4"/>
<feGaussianBlur stdDeviation="2"/>
<feComposite in2="hardAlpha" operator="out"/>
<feColorMatrix type="matrix" values="0 0 0 0 0 0 0 0 0 0 0 0 0 0 0 0 0 0 0.25 0"/>
<feBlend mode="normal" in2="BackgroundImageFix" result="effect1_dropShadow_263_11"/>
<feBlend mode="normal" in="SourceGraphic" in2="effect1_dropShadow_263_11" result="shape"/>
</filter>
<filter id="filter1_d_263_11" x="3.02948" y="-0.00341797" width="740.976" height="312.01" filterUnits="userSpaceOnUse" color-interpolation-filters="sRGB">
<feFlood flood-opacity="0" result="BackgroundImageFix"/>
<feColorMatrix in="SourceAlpha" type="matrix" values="0 0 0 0 0 0 0 0 0 0 0 0 0 0 0 0 0 0 127 0" result="hardAlpha"/>
<feOffset dx="8" dy="10"/>
<feGaussianBlur stdDeviation="4.5"/>
<feColorMatrix type="matrix" values="0 0 0 0 0.150312 0 0 0 0 0.222243 0 0 0 0 0.325 0 0 0 0.46 0"/>
<feBlend mode="multiply" in2="BackgroundImageFix" result="effect1_dropShadow_263_11"/>
<feBlend mode="normal" in="SourceGraphic" in2="effect1_dropShadow_263_11" result="shape"/>
</filter>
<clipPath id="clip0_263_11">
<rect width="723" height="293" fill="white" transform="translate(4)"/>
</clipPath>
</defs>
</svg>
