<svg width="160" height="160" viewBox="0 0 160 160" fill="none" xmlns="http://www.w3.org/2000/svg">
<g clip-path="url(#clip0_17_217)">
<path d="M41.1432 19.3917C48.6604 14.5048 57.0233 11.0685 65.8009 9.25977" stroke="white" stroke-linecap="round" stroke-linejoin="round"/>
<path d="M9.94501 63.6293C11.8098 55.6744 15.0106 48.0948 19.4108 41.2144" stroke="white" stroke-linecap="round" stroke-linejoin="round"/>
<path d="M94.9658 9.25977C108.131 11.9717 120.282 18.3031 130.058 27.5443C139.833 36.7855 146.846 48.5713 150.31 61.5808C153.775 74.5903 153.554 88.3093 149.673 101.2C145.792 114.091 138.403 125.644 128.336 134.565C118.268 143.486 105.92 149.422 92.6739 151.707C79.4282 153.993 65.8087 152.538 53.3421 147.505C40.8755 142.472 30.0544 134.061 22.0917 123.214C14.1289 112.366 9.33919 99.5119 8.25934 86.0909" stroke="white" stroke-linecap="round" stroke-linejoin="round"/>
<path d="M105.422 46.2128C114.281 53.6844 119.67 65.6349 117.855 77.2528C115.567 91.3752 106.169 104.962 93.2852 111.322C89.4691 113.174 85.4848 114.657 81.3869 115.749C77.528 116.788 73.3008 117.412 69.4574 116.513C60.2562 114.434 52.5072 104.994 46.9834 97.7193C46.2832 96.8464 45.7437 95.854 44.9087 95.0798C44.6234 94.82 44.0788 95.9839 44.4678 96.6853C46.9918 101.337 49.8868 105.776 53.1245 109.961C58.0985 116.279 64.7738 121.735 73.1556 122.067C76.3892 122.172 79.6206 121.799 82.7458 120.96C90.3703 119.002 96.833 114.237 102.575 109.041C111.688 100.936 118.083 89.6398 119.748 77.5022C121.304 66.0194 116.314 54.4326 108.124 46.4934L107.647 46.0413C107.494 45.897 107.312 45.7862 107.114 45.7161C106.915 45.6461 106.704 45.6182 106.494 45.6343C106.285 45.6505 106.08 45.7102 105.895 45.8098C105.709 45.9094 105.547 46.0467 105.417 46.2128H105.422Z" fill="white"/>
<path d="M45.7853 86.2884C48.0778 92.752 53.3112 98.9195 65.277 107.69C74.5612 114.492 89.2811 108.21 100.002 99.039C106.309 93.6509 108.82 87.8783 105.459 88.346C99.6961 89.1461 90.8683 88.5226 88.944 87.4834C88.8954 87.4565 88.8572 87.4141 88.8354 87.3629C88.8136 87.3117 88.8096 87.2547 88.8239 87.2009C88.8382 87.1472 88.8701 87.0997 88.9144 87.0662C88.9587 87.0326 89.0129 87.0149 89.0685 87.0158C95.4689 87.1873 106.537 83.4463 109.893 80.5678C111.144 79.4882 112.155 78.1586 112.863 76.6643C113.57 75.17 113.958 73.544 114.001 71.8907C114.354 59.7116 108.031 48.9302 99.5508 45.7763C99.0069 45.5674 98.4163 45.5116 97.843 45.6151C97.2697 45.7186 96.7356 45.9774 96.2988 46.3634C93.1037 49.2471 88.4616 55.373 90.0747 65.8323C90.0829 65.8914 90.0697 65.9515 90.0374 66.0017C90.0052 66.0519 89.9561 66.0888 89.8989 66.1058C89.8418 66.1228 89.7805 66.1187 89.7262 66.0942C89.6718 66.0698 89.628 66.0266 89.6027 65.9726C88.2593 62.7927 85.8164 54.656 88.3942 48.4366L88.4461 48.3586C88.9336 47.839 89.4834 46.3582 88.2957 46.5868C88.2569 46.5961 88.2201 46.6119 88.1867 46.6336C83.0467 50.5253 82.6006 60.3039 79.3019 66.6636C79.1307 66.991 86.0861 72.2388 80.0591 75.8032C72.8963 80.0378 64.39 82.9579 62.0508 83.1501C56.6463 83.5917 55.5934 77.4346 53.4201 78.0374C43.3268 80.8016 45.3444 85.0933 45.7853 86.2884ZM69.167 86.808C73.5446 86.252 77.2946 87.4211 77.5488 89.4059C77.8029 91.3907 74.4367 93.4795 70.0799 94.0354C65.723 94.5914 61.9523 93.4223 61.6981 91.4375C61.444 89.4527 64.7894 87.3691 69.167 86.8132V86.808Z" fill="white"/>
<path d="M86.3195 12.289C85.7716 11.6771 85.1083 11.1798 84.3678 10.8257C83.6273 10.4716 82.8242 10.2677 82.0047 10.2257C81.1852 10.1837 80.3655 10.3044 79.5928 10.5809C78.8201 10.8574 78.1095 11.2843 77.5021 11.8369C76.9586 12.3322 76.4996 12.9131 76.1432 13.5568C72.3932 19.7918 71.2314 26.4892 70.8631 33.3374C70.6092 39.6027 71.0563 45.8768 72.1961 52.0425C72.2592 52.3372 72.4263 52.5991 72.6667 52.7804C72.907 52.9616 73.2046 53.0499 73.5047 53.029C73.8049 53.0082 74.0874 52.8796 74.3006 52.6669C74.5137 52.4542 74.6431 52.1716 74.665 51.871C75.4948 43.3706 77.3673 34.4857 81.4077 26.9725C82.5627 24.7952 84.0641 22.8209 85.8527 21.1271C86.4654 20.5792 86.9637 19.9153 87.319 19.1735C87.6743 18.4318 87.8796 17.627 87.923 16.8054C87.9664 15.9838 87.8471 15.1618 87.5719 14.3866C87.2967 13.6115 86.871 12.8986 86.3195 12.289ZM83.332 19.1735C82.0673 20.1642 80.9754 21.3581 80.1007 22.7067C76.9886 27.331 75.1888 33.0048 74.0685 38.4657C74.0337 38.65 73.9345 38.816 73.7887 38.9337C73.6429 39.0515 73.4601 39.1135 73.2728 39.1085C73.0856 39.1035 72.9063 39.0318 72.7669 38.9065C72.6276 38.7811 72.5374 38.6101 72.5125 38.4241C72.2207 34.3528 72.3755 30.2617 72.9741 26.2243C73.6899 21.8078 74.9036 17.5212 77.7148 13.7022C77.9888 13.3111 78.3171 12.9612 78.6899 12.6631C79.1041 12.3427 79.5784 12.1089 80.0845 11.9755C80.5906 11.8421 81.1183 11.8118 81.6363 11.8864C82.1543 11.961 82.6521 12.139 83.1001 12.4099C83.5482 12.6807 83.9375 13.0389 84.2448 13.4632C84.8614 14.3488 85.1097 15.4399 84.9374 16.5056C84.7651 17.5714 84.1856 18.5281 83.3216 19.1735H83.332Z" fill="white"/>
<path d="M40.7593 73.4286C34.2777 70.0492 27.1484 68.1003 19.8516 67.7131C18.9128 67.6456 17.4606 67.7131 16.5114 67.7131C15.776 67.7123 15.0495 67.8745 14.384 68.1882C13.7185 68.5018 13.1306 68.9591 12.6624 69.5272C12.1941 70.0953 11.8572 70.7601 11.6757 71.474C11.4942 72.188 11.4726 72.9333 11.6126 73.6566C11.7525 74.3798 12.0505 75.0631 12.4852 75.6574C12.9198 76.2517 13.4803 76.7422 14.1266 77.0939C14.7728 77.4456 15.4887 77.6497 16.2229 77.6915C16.9572 77.7333 17.6916 77.6119 18.3734 77.3359C18.778 77.18 19.7687 76.8163 20.168 76.676C22.9556 75.8031 25.8341 75.2539 28.7469 75.0393C31.0916 74.845 33.447 74.8172 35.7956 74.9562C37.2168 75.0497 38.7106 75.1952 40.0954 75.4186C40.2259 75.4623 40.3636 75.4798 40.5008 75.4701C40.638 75.4604 40.7719 75.4238 40.895 75.3623C41.018 75.3008 41.1278 75.2156 41.218 75.1116C41.3082 75.0076 41.377 74.8868 41.4206 74.7561C41.4642 74.6254 41.4817 74.4875 41.4721 74.35C41.4624 74.2126 41.4258 74.0784 41.3644 73.9551C41.303 73.8319 41.218 73.7219 41.1142 73.6316C41.0103 73.5412 40.8898 73.4722 40.7593 73.4286ZM31.9938 73.4286C31.0861 73.3506 30.1214 73.3195 29.1981 73.3195C27.6867 73.3241 26.1773 73.4317 24.6805 73.6416C22.8203 73.8865 20.9924 74.3343 19.2292 74.9769L18.1089 75.4394C16.1587 76.3383 13.7002 75.0029 13.555 72.9402C13.5283 72.5326 13.5831 72.1238 13.7162 71.7377C13.8492 71.3516 14.0578 70.9959 14.3297 70.6916C14.6017 70.3872 14.9315 70.1403 15.2998 69.9652C15.6682 69.7901 16.0678 69.6904 16.4751 69.672C17.0819 69.6356 18.0052 69.5265 18.612 69.5421C23.3175 69.5048 27.9821 70.4202 32.3257 72.2335C32.4679 72.2948 32.5832 72.4053 32.6506 72.5449C32.718 72.6845 32.7329 72.8437 32.6925 72.9934C32.6522 73.143 32.5593 73.2731 32.431 73.3597C32.3026 73.4464 32.1474 73.4837 31.9938 73.4649V73.4286Z" fill="white"/>
<path d="M61.3506 30.7862C60.9045 25.2682 52.9792 25.6267 53.0207 31.1655C53.0504 31.8461 53.2444 32.5093 53.5861 33.0984L60.4222 44.7319C60.5092 44.9025 60.6527 45.0375 60.8281 45.1138C61.0035 45.1901 61.2 45.2029 61.3838 45.1501C61.5676 45.0974 61.7275 44.9822 61.8359 44.8244C61.9443 44.6666 61.9946 44.4759 61.9782 44.2851L61.3506 30.7862ZM58.2386 38.4241L54.6079 31.9345C54.429 31.6053 54.3295 31.2388 54.3174 30.8641C54.3278 30.2702 54.5669 29.7032 54.985 29.2818C55.403 28.8604 55.9674 28.6173 56.5603 28.6032C57.1531 28.5891 57.7285 28.8052 58.1659 29.2062C58.6034 29.6073 58.8692 30.1622 58.9077 30.755L59.1048 38.2007C59.1015 38.299 59.0666 38.3936 59.0054 38.4704C58.9442 38.5473 58.8599 38.6024 58.765 38.6275C58.6701 38.6526 58.5696 38.6463 58.4785 38.6097C58.3875 38.5731 58.3106 38.508 58.2593 38.4241H58.2386Z" fill="white"/>
<path d="M77.6318 72.561C76.9678 72.9559 76.2936 73.3369 75.6089 73.7041L67.2376 62.8655C67.0903 62.6984 66.9116 62.562 66.7116 62.4641C66.5116 62.3663 66.2943 62.309 66.0722 62.2955C65.85 62.282 65.6274 62.3125 65.4171 62.3854C65.2067 62.4582 65.0128 62.572 64.8465 62.7201L64.0944 63.3903C63.9275 63.5378 63.7914 63.7169 63.6937 63.9172C63.5961 64.1175 63.5388 64.3352 63.5253 64.5578C63.5119 64.7803 63.5423 65.0033 63.6151 65.214C63.6878 65.4247 63.8013 65.619 63.9492 65.7856L71.9315 75.5486C70.5571 76.1929 69.2033 76.7697 67.9326 77.2789L60.5571 68.794C60.2589 68.4576 59.8398 68.2534 59.3915 68.2261C58.9433 68.1988 58.5026 68.3507 58.166 68.6485L57.4139 69.3188C57.2474 69.4667 57.1116 69.646 57.0145 69.8465C56.9173 70.047 56.8605 70.2648 56.8475 70.4873C56.8345 70.7098 56.8655 70.9328 56.9386 71.1433C57.0118 71.3538 57.1257 71.5478 57.2739 71.7141L63.5965 78.8428C62.5134 79.2185 61.3965 79.4882 60.2614 79.6482C59.6284 79.7037 58.9906 79.6546 58.3735 79.5027C53.7521 74.8784 47.4295 68.5342 45.4066 66.5494C47.5367 64.4018 49.7185 62.3061 51.9523 60.2624C43.1349 51.4762 33.8506 42.1133 25.028 33.3219L32.5643 25.4346L56.527 56.22C58.8195 54.2525 61.1587 52.3353 63.5446 50.4682C67.0353 54.9574 74.3641 64.7205 79.2863 71.1789C78.8274 71.7407 78.2659 72.2097 77.6318 72.561Z" fill="white"/>
<path d="M20.7749 101.278L26.1535 99.5429L25.0073 95.9734L19.6079 97.7088L18.5342 94.3523L32.1701 89.9722L33.2438 93.3287L28.0208 95.0174L29.1618 98.5869L34.4108 96.8982L35.4896 100.255L21.8486 104.635L20.7749 101.278Z" fill="white"/>
<path d="M27.943 115.661L29.4212 113.987L27.1338 110.215L24.945 110.735L23.0415 107.576L37.9689 104.604L39.3797 106.926L29.8569 118.809L27.943 115.661ZM34.084 108.641L30.1525 109.529L31.4492 111.665L34.084 108.641Z" fill="white"/>
<path d="M44.582 132.661L48.778 127.227L45.0073 128.785L43.223 127.403L43.7884 123.366L39.5872 128.801L36.8019 126.639L45.5623 115.297L48.3008 117.417L46.9834 124.39L53.389 121.36L56.1276 123.48L47.3672 134.828L44.582 132.661Z" fill="white"/>
<path d="M54.9139 138.502L51.0498 136.896L55.8372 132.542C55.384 131.915 55.1025 131.181 55.0206 130.412C54.9387 129.642 55.0593 128.865 55.3703 128.157C56.4544 125.533 59.001 124.686 61.6463 125.777L66.8849 127.954L61.3921 141.198L58.1401 139.847L60.1006 135.124L58.7832 134.573L54.9139 138.502ZM62.4606 129.45L60.583 128.666C60.4035 128.582 60.209 128.536 60.0112 128.53C59.8133 128.524 59.6163 128.558 59.4321 128.63C59.2478 128.703 59.0801 128.812 58.9392 128.951C58.7982 129.09 58.6869 129.256 58.612 129.44C58.533 129.624 58.4918 129.822 58.491 130.023C58.4901 130.223 58.5296 130.422 58.6071 130.606C58.6846 130.791 58.7984 130.958 58.9418 131.098C59.0853 131.238 59.2554 131.347 59.4419 131.42L61.3195 132.199L62.4606 129.45Z" fill="white"/>
<path d="M71.0394 143.453C70.307 143.366 69.6013 143.124 68.9685 142.745C68.3356 142.365 67.79 141.856 67.3672 141.25C66.1587 139.562 66.4596 137.753 66.8486 135.369C67.2376 132.984 67.5384 131.175 69.2293 129.965C69.8238 129.527 70.5043 129.221 71.2259 129.066C71.9474 128.911 72.6935 128.911 73.4149 129.066C76.0913 129.508 77.9896 131.352 77.9896 134.558L74.4575 133.976C74.3693 133.145 74.0529 132.355 72.9015 132.163C72.6449 132.108 72.3793 132.113 72.1249 132.177C71.8705 132.241 71.6341 132.362 71.4336 132.532C71.0446 132.9 70.7438 133.358 70.3185 135.94C69.8932 138.522 70.028 139.058 70.277 139.53C70.4119 139.756 70.5966 139.947 70.817 140.089C71.0373 140.231 71.2873 140.321 71.5477 140.351C72.6992 140.544 73.2542 139.899 73.6224 139.141L77.1546 139.728C76.1069 142.762 73.7158 143.895 71.0394 143.453Z" fill="white"/>
<path d="M87.9222 143.838L87.5072 138.174L83.778 138.444L84.1929 144.113L80.6815 144.373L79.6442 130.064L83.1556 129.809L83.5601 135.311L87.2894 135.036L86.8745 129.544L90.3859 129.284L91.4232 143.594L87.9222 143.838Z" fill="white"/>
<path d="M104.499 138.413C103.781 139.708 102.599 140.681 101.193 141.137C99.7869 141.593 98.2602 141.498 96.9211 140.871C95.0747 139.931 94.5093 138.185 93.7624 135.883C93.0155 133.581 92.4554 131.841 93.3994 129.986C94.1175 128.691 95.2989 127.718 96.7052 127.262C98.1115 126.806 99.6381 126.901 100.977 127.528C102.824 128.474 103.389 130.214 104.136 132.516C104.883 134.818 105.443 136.558 104.499 138.413ZM99.2033 130.412C98.9735 130.279 98.7187 130.197 98.4552 130.169C98.1916 130.142 97.9253 130.17 97.6732 130.251C97.4211 130.333 97.1888 130.467 96.9914 130.644C96.794 130.821 96.6358 131.037 96.5269 131.279C96.3506 131.799 96.3091 132.319 97.1131 134.797C97.917 137.275 98.2541 137.665 98.6691 137.972C98.8976 138.118 99.1568 138.211 99.4266 138.241C99.6963 138.272 99.9695 138.24 100.225 138.148C100.482 138.074 100.718 137.941 100.916 137.761C101.114 137.581 101.268 137.358 101.366 137.109C101.543 136.59 101.594 136.106 100.785 133.612C99.9761 131.118 99.639 130.713 99.2033 130.412Z" fill="white"/>
<path d="M118.965 132.038L115.225 126.276L115.453 130.36L113.565 131.591L109.935 129.731L113.679 135.488L110.728 137.411L102.917 125.387L105.816 123.501L111.963 127.04L111.216 119.978L114.115 118.087L121.932 130.11L118.965 132.038Z" fill="white"/>
<path d="M134.691 115.588L131.34 120.472L119.54 112.34L125.08 104.271L127.673 106.053L124.131 111.218L125.754 112.335L127.108 110.361C128.809 107.882 131.413 107.503 133.617 109.02C135.822 110.537 136.402 113.099 134.691 115.588ZM129.608 112.283L128.332 114.128L130.718 115.77L131.983 113.93C132.182 113.612 132.25 113.23 132.174 112.863C132.098 112.496 131.883 112.172 131.575 111.96C131.267 111.748 130.888 111.663 130.519 111.723C130.149 111.783 129.818 111.984 129.592 112.283H129.608Z" fill="white"/>
<path d="M139.281 101.034C140.272 102.001 141.06 103.424 140.401 105.134L139.701 106.958L136.776 105.835L137.222 104.666C137.363 104.319 137.374 103.932 137.253 103.577C137.132 103.222 136.887 102.922 136.563 102.733L136.496 102.681L125.739 103.398L127.066 99.938L133.56 99.7405L128.778 95.4643L130.07 92.0974L139.281 101.034Z" fill="white"/>
<path d="M145.111 87.2341L134.037 85.6441L133.685 88.1174L137.388 88.6369C143.322 89.4943 144.546 91.1725 144.131 94.2485L143.939 95.5838L140.827 95.137L140.889 94.7213C141.065 93.4847 140.531 92.5286 136.926 92.009L130.111 91.0322L131.449 81.6797L145.635 83.7165L145.111 87.2341Z" fill="white"/>
<path d="M145.049 72.1764L145.65 77.9282L131.413 79.4194L131.045 75.9174L136.128 75.3978L135.889 73.1532C135.593 70.3111 137.31 68.186 139.971 67.9054C142.632 67.6248 144.753 69.3551 145.049 72.1764ZM139.058 73.0701L139.266 75.0549L142.165 74.7484L141.957 72.7635C141.945 72.5657 141.893 72.3724 141.804 72.1953C141.715 72.0183 141.592 71.8611 141.44 71.7333C141.289 71.6056 141.113 71.5099 140.924 71.4521C140.735 71.3943 140.536 71.3756 140.339 71.397C140.143 71.4172 139.953 71.4772 139.781 71.5734C139.609 71.6697 139.458 71.8002 139.339 71.9568C139.219 72.1135 139.132 72.293 139.084 72.4845C139.035 72.6759 139.027 72.8752 139.058 73.0701Z" fill="white"/>
<path d="M139.255 55.3938C140.561 56.0855 141.558 57.2468 142.045 58.6443C142.532 60.0418 142.473 61.5721 141.88 62.9278C140.977 64.8035 139.25 65.4062 136.968 66.2012C134.686 66.9961 132.964 67.6041 131.091 66.7208C129.784 66.03 128.787 64.8688 128.3 63.4709C127.813 62.0731 127.872 60.5423 128.467 59.1868C129.369 57.3111 131.096 56.7083 133.379 55.9134C135.661 55.1184 137.383 54.4897 139.255 55.3938ZM131.387 60.8754C131.26 61.109 131.184 61.3666 131.162 61.6315C131.141 61.8965 131.175 62.163 131.262 62.414C131.35 62.665 131.489 62.8949 131.67 63.089C131.851 63.283 132.071 63.437 132.315 63.5409C132.834 63.7072 133.353 63.7383 135.811 62.8758C138.27 62.0133 138.648 61.6704 138.923 61.2236C139.063 60.9915 139.149 60.7305 139.173 60.4604C139.197 60.1903 139.16 59.9182 139.063 59.6648C138.982 59.4094 138.843 59.176 138.658 58.9824C138.473 58.7888 138.246 58.6401 137.995 58.5477C137.476 58.3814 136.989 58.3398 134.515 59.2076C132.04 60.0753 131.677 60.439 131.387 60.8754Z" fill="white"/>
<path d="M134.162 43.3186L129.406 46.4361L131.444 49.5536L136.195 46.4361L138.114 49.3874L126.112 57.1812L124.183 54.2767L128.804 51.2683L126.766 48.1508L122.149 51.1592L120.23 48.2027L132.232 40.4089L134.162 43.3186Z" fill="white"/>
<path d="M129.011 36.5901L119.115 46.9818L112.077 40.2272L114.245 37.9566L118.737 42.2536L120.391 40.5182L116.553 36.8447L118.721 34.5741L122.559 38.2476L124.297 36.4238L119.805 32.1217L121.973 29.8511L129.011 36.5901Z" fill="white"/>
</g>
<circle cx="80" cy="80" r="79.5" stroke="white" stroke-dasharray="2 2"/>
<defs>
<clipPath id="clip0_17_217">
<rect width="145" height="144.014" fill="white" transform="translate(8 9)"/>
</clipPath>
</defs>
</svg>
