<svg width="145" height="145" viewBox="0 0 145 145" fill="none" xmlns="http://www.w3.org/2000/svg">
<path d="M33.1432 10.3917C40.6604 5.50484 49.0233 2.06854 57.8009 0.259766" stroke="white" stroke-linecap="round" stroke-linejoin="round"/>
<path d="M1.94501 54.6293C3.80977 46.6744 7.0106 39.0948 11.4108 32.2144" stroke="white" stroke-linecap="round" stroke-linejoin="round"/>
<path d="M86.9658 0.259766C100.131 2.97168 112.282 9.30305 122.058 18.5443C131.833 27.7855 138.846 39.5713 142.31 52.5808C145.775 65.5903 145.554 79.3093 141.673 92.2002C137.792 105.091 130.403 116.644 120.336 125.565C110.268 134.486 97.9197 140.422 84.6739 142.707C71.4282 144.993 57.8087 143.538 45.3421 138.505C32.8755 133.472 22.0544 125.061 14.0917 114.214C6.12892 103.366 1.33919 90.5119 0.259338 77.0909" stroke="white" stroke-linecap="round" stroke-linejoin="round"/>
</svg>
