<svg width="110" height="113" viewBox="0 0 110 113" fill="none" xmlns="http://www.w3.org/2000/svg">
<path d="M94.4222 36.2128C103.281 43.6844 108.67 55.6349 106.855 67.2528C104.567 81.3752 95.1691 94.9623 82.2852 101.322C78.4691 103.174 74.4848 104.657 70.3869 105.749C66.528 106.788 62.3008 107.412 58.4574 106.513C49.2562 104.434 41.5072 94.9935 35.9834 87.7193C35.2832 86.8464 34.7437 85.854 33.9087 85.0798C33.6234 84.82 33.0788 85.9839 33.4678 86.6853C35.9918 91.3368 38.8868 95.7763 42.1245 99.9608C47.0985 106.279 53.7738 111.735 62.1556 112.067C65.3892 112.172 68.6206 111.799 71.7458 110.96C79.3703 109.002 85.833 104.237 91.5747 99.0411C100.688 90.9356 107.083 79.6398 108.748 67.5022C110.304 56.0194 105.314 44.4326 97.1245 36.4934L96.6473 36.0413C96.4939 35.897 96.3121 35.7862 96.1136 35.7161C95.9151 35.6461 95.7042 35.6182 95.4944 35.6343C95.2845 35.6505 95.0803 35.7102 94.8948 35.8098C94.7093 35.9094 94.5466 36.0467 94.417 36.2128H94.4222Z" fill="white"/>
<path d="M34.7853 76.2884C37.0778 82.752 42.3112 88.9195 54.277 97.6901C63.5612 104.492 78.2811 98.2097 89.0021 89.039C95.3091 83.6509 97.8195 77.8783 94.4585 78.346C88.6961 79.1461 79.8683 78.5226 77.944 77.4834C77.8954 77.4565 77.8572 77.4141 77.8354 77.3629C77.8136 77.3117 77.8096 77.2547 77.8239 77.2009C77.8382 77.1472 77.8701 77.0997 77.9144 77.0662C77.9587 77.0326 78.0129 77.0149 78.0685 77.0158C84.4689 77.1873 95.5374 73.4463 98.8932 70.5678C100.144 69.4882 101.155 68.1586 101.863 66.6643C102.57 65.17 102.958 63.544 103.001 61.8907C103.354 49.7116 97.0311 38.9302 88.5508 35.7763C88.0069 35.5674 87.4163 35.5116 86.843 35.6151C86.2697 35.7186 85.7356 35.9774 85.2988 36.3634C82.1037 39.2471 77.4616 45.373 79.0747 55.8323C79.0829 55.8914 79.0697 55.9515 79.0374 56.0017C79.0052 56.0519 78.9561 56.0888 78.8989 56.1058C78.8418 56.1228 78.7805 56.1187 78.7262 56.0942C78.6718 56.0698 78.628 56.0266 78.6027 55.9726C77.2593 52.7927 74.8164 44.656 77.3942 38.4366L77.4461 38.3586C77.9336 37.839 78.4834 36.3582 77.2957 36.5868C77.2569 36.5961 77.2201 36.6119 77.1867 36.6336C72.0467 40.5253 71.6006 50.3039 68.3019 56.6636C68.1307 56.991 75.0861 62.2388 69.0591 65.8032C61.8963 70.0378 53.39 72.9579 51.0508 73.1501C45.6463 73.5917 44.5934 67.4346 42.4201 68.0374C32.3268 70.8016 34.3444 75.0933 34.7853 76.2884ZM58.167 76.808C62.5446 76.252 66.2946 77.4211 66.5488 79.4059C66.8029 81.3907 63.4367 83.4795 59.0799 84.0354C54.723 84.5914 50.9523 83.4223 50.6981 81.4375C50.444 79.4527 53.7894 77.3691 58.167 76.8132V76.808Z" fill="white"/>
<path d="M75.3195 2.28896C74.7716 1.6771 74.1083 1.17981 73.3678 0.825711C72.6273 0.471612 71.8242 0.26769 71.0047 0.225678C70.1852 0.183667 69.3655 0.304394 68.5928 0.580914C67.8201 0.857434 67.1095 1.28429 66.5021 1.83692C65.9586 2.3322 65.4996 2.91313 65.1432 3.55675C61.3932 9.79178 60.2314 16.4892 59.8631 23.3374C59.6092 29.6027 60.0563 35.8768 61.1961 42.0425C61.2592 42.3372 61.4263 42.5991 61.6667 42.7804C61.907 42.9616 62.2046 43.0499 62.5047 43.029C62.8049 43.0082 63.0874 42.8796 63.3006 42.6669C63.5137 42.4542 63.6431 42.1716 63.665 41.871C64.4948 33.3706 66.3673 24.4857 70.4077 16.9725C71.5627 14.7952 73.0641 12.8209 74.8527 11.1271C75.4654 10.5792 75.9637 9.91526 76.319 9.17353C76.6743 8.4318 76.8796 7.62696 76.923 6.8054C76.9664 5.98383 76.8471 5.16179 76.5719 4.38664C76.2967 3.6115 75.871 2.89857 75.3195 2.28896ZM72.332 9.17347C71.0673 10.1642 69.9754 11.3581 69.1007 12.7067C65.9886 17.331 64.1888 23.0048 63.0685 28.4657C63.0337 28.65 62.9345 28.816 62.7887 28.9337C62.6429 29.0515 62.4601 29.1135 62.2728 29.1085C62.0856 29.1035 61.9063 29.0318 61.7669 28.9065C61.6276 28.7811 61.5374 28.6101 61.5125 28.4241C61.2207 24.3528 61.3755 20.2617 61.9741 16.2243C62.6899 11.8078 63.9036 7.52119 66.7148 3.70223C66.9888 3.31111 67.3171 2.96119 67.6899 2.66306C68.1041 2.3427 68.5784 2.10889 69.0845 1.97548C69.5906 1.84207 70.1183 1.81178 70.6363 1.88639C71.1543 1.96101 71.6521 2.13902 72.1001 2.40987C72.5482 2.68073 72.9375 3.03892 73.2448 3.46322C73.8614 4.34877 74.1097 5.43987 73.9374 6.50562C73.7651 7.57137 73.1856 8.52815 72.3216 9.17347H72.332Z" fill="white"/>
<path d="M29.7593 63.4286C23.2777 60.0492 16.1484 58.1003 8.85164 57.7131C7.91284 57.6456 6.46056 57.7131 5.51139 57.7131C4.77596 57.7123 4.04947 57.8745 3.38401 58.1882C2.71855 58.5018 2.13061 58.9591 1.66237 59.5272C1.19412 60.0953 0.857163 60.7601 0.675664 61.474C0.494164 62.188 0.472619 62.9333 0.612572 63.6566C0.752526 64.3798 1.05051 65.0631 1.48516 65.6574C1.9198 66.2517 2.48034 66.7422 3.12656 67.0939C3.77279 67.4456 4.4887 67.6497 5.22294 67.6915C5.95718 67.7333 6.69157 67.6119 7.37343 67.3359C7.77799 67.18 8.76865 66.8163 9.16803 66.676C11.9556 65.8031 14.8341 65.2539 17.7469 65.0393C20.0916 64.845 22.447 64.8172 24.7956 64.9562C26.2168 65.0497 27.7106 65.1952 29.0954 65.4186C29.2259 65.4623 29.3636 65.4798 29.5008 65.4701C29.638 65.4604 29.7719 65.4238 29.895 65.3623C30.018 65.3008 30.1278 65.2156 30.218 65.1116C30.3082 65.0076 30.377 64.8868 30.4206 64.7561C30.4642 64.6254 30.4817 64.4875 30.4721 64.35C30.4624 64.2126 30.4258 64.0784 30.3644 63.9551C30.303 63.8319 30.218 63.7219 30.1142 63.6316C30.0103 63.5412 29.8898 63.4722 29.7593 63.4286ZM20.9938 63.4286C20.0861 63.3506 19.1214 63.3195 18.1981 63.3195C16.6867 63.3241 15.1773 63.4317 13.6805 63.6416C11.8203 63.8865 9.99236 64.3343 8.22923 64.9769L7.1089 65.4394C5.15869 66.3383 2.70019 65.0029 2.55496 62.9402C2.52833 62.5326 2.58313 62.1238 2.71616 61.7377C2.8492 61.3516 3.05779 60.9959 3.32972 60.6916C3.60165 60.3872 3.93146 60.1403 4.29984 59.9652C4.66822 59.7901 5.06777 59.6904 5.47509 59.672C6.08193 59.6356 7.00517 59.5265 7.61201 59.5421C12.3175 59.5048 16.9821 60.4202 21.3257 62.2335C21.4679 62.2948 21.5832 62.4053 21.6506 62.5449C21.718 62.6845 21.7329 62.8437 21.6925 62.9934C21.6522 63.143 21.5593 63.2731 21.431 63.3597C21.3026 63.4464 21.1474 63.4837 20.9938 63.4649V63.4286Z" fill="white"/>
<path d="M50.3506 20.7862C49.9045 15.2682 41.9792 15.6267 42.0207 21.1655C42.0504 21.8461 42.2444 22.5093 42.5861 23.0984L49.4222 34.7319C49.5092 34.9025 49.6527 35.0375 49.8281 35.1138C50.0035 35.1901 50.2 35.2029 50.3838 35.1501C50.5676 35.0974 50.7275 34.9822 50.8359 34.8244C50.9443 34.6666 50.9946 34.4759 50.9782 34.2851L50.3506 20.7862ZM47.2386 28.4241L43.6079 21.9345C43.429 21.6053 43.3295 21.2388 43.3174 20.8641C43.3278 20.2702 43.5669 19.7032 43.985 19.2818C44.403 18.8604 44.9674 18.6173 45.5603 18.6032C46.1531 18.5891 46.7285 18.8052 47.1659 19.2062C47.6034 19.6073 47.8692 20.1622 47.9077 20.755L48.1048 28.2007C48.1015 28.299 48.0666 28.3936 48.0054 28.4704C47.9442 28.5473 47.8599 28.6024 47.765 28.6275C47.6701 28.6526 47.5696 28.6463 47.4785 28.6097C47.3875 28.5731 47.3106 28.508 47.2593 28.4241H47.2386Z" fill="white"/>
<path d="M66.6318 62.561C65.9678 62.9559 65.2936 63.3369 64.6089 63.7041L56.2376 52.8655C56.0903 52.6984 55.9116 52.562 55.7116 52.4641C55.5116 52.3663 55.2943 52.309 55.0722 52.2955C54.85 52.282 54.6274 52.3125 54.4171 52.3854C54.2067 52.4582 54.0128 52.572 53.8465 52.7201L53.0944 53.3903C52.9275 53.5378 52.7914 53.7169 52.6937 53.9172C52.5961 54.1175 52.5388 54.3352 52.5253 54.5578C52.5119 54.7803 52.5423 55.0033 52.6151 55.214C52.6878 55.4247 52.8013 55.619 52.9492 55.7856L60.9315 65.5486C59.5571 66.1929 58.2033 66.7697 56.9326 67.2789L49.5571 58.794C49.2589 58.4576 48.8398 58.2534 48.3915 58.2261C47.9433 58.1988 47.5026 58.3507 47.166 58.6485L46.4139 59.3188C46.2474 59.4667 46.1116 59.646 46.0145 59.8465C45.9173 60.047 45.8605 60.2648 45.8475 60.4873C45.8345 60.7098 45.8655 60.9328 45.9386 61.1433C46.0118 61.3538 46.1257 61.5478 46.2739 61.7141L52.5965 68.8428C51.5134 69.2185 50.3965 69.4882 49.2614 69.6482C48.6284 69.7037 47.9906 69.6546 47.3735 69.5027C42.7521 64.8784 36.4295 58.5342 34.4066 56.5494C36.5367 54.4018 38.7185 52.3061 40.9523 50.2624C32.1349 41.4762 22.8506 32.1133 14.028 23.3219L21.5643 15.4346L45.527 46.22C47.8195 44.2525 50.1587 42.3353 52.5446 40.4682C56.0353 44.9574 63.3641 54.7205 68.2863 61.1789C67.8274 61.7407 67.2659 62.2097 66.6318 62.561Z" fill="white"/>
</svg>
