<svg width="128" height="116" viewBox="0 0 128 116" fill="none" xmlns="http://www.w3.org/2000/svg">
<path d="M2.7749 72.2784L8.15354 70.5429L7.00727 66.9734L1.60789 68.7088L0.534241 65.3523L14.1701 60.9722L15.2438 64.3287L10.0208 66.0174L11.1618 69.5869L16.4108 67.8982L17.4896 71.2548L3.84856 75.6349L2.7749 72.2784Z" fill="white"/>
<path d="M9.94296 86.6605L11.4212 84.9875L9.13383 81.2153L6.94503 81.7349L5.0415 78.5758L19.9689 75.6038L21.3797 77.9263L11.8569 89.8092L9.94296 86.6605ZM16.084 79.6409L12.1525 80.5294L13.4492 82.6649L16.084 79.6409Z" fill="white"/>
<path d="M26.582 103.661L30.778 98.2266L27.0073 99.7853L25.223 98.4032L25.7884 94.366L21.5872 99.8009L18.8019 97.6394L27.5623 86.2969L30.3008 88.4168L28.9834 95.3896L35.389 92.3604L38.1276 94.4804L29.3672 105.828L26.582 103.661Z" fill="white"/>
<path d="M36.9139 109.502L33.0498 107.896L37.8372 103.542C37.384 102.915 37.1025 102.181 37.0206 101.412C36.9387 100.642 37.0593 99.8648 37.3703 99.1566C38.4544 96.5327 41.001 95.6858 43.6463 96.7769L48.8849 98.954L43.3921 112.198L40.1401 110.847L42.1006 106.124L40.7832 105.573L36.9139 109.502ZM44.4606 100.45L42.583 99.6658C42.4035 99.5821 42.209 99.5359 42.0112 99.5297C41.8133 99.5236 41.6163 99.5578 41.4321 99.6302C41.2478 99.7025 41.0801 99.8116 40.9392 99.9508C40.7982 100.09 40.6869 100.256 40.612 100.44C40.533 100.624 40.4918 100.822 40.491 101.023C40.4901 101.223 40.5296 101.422 40.6071 101.606C40.6846 101.791 40.7984 101.958 40.9418 102.098C41.0853 102.238 41.2554 102.347 41.4419 102.42L43.3195 103.199L44.4606 100.45Z" fill="white"/>
<path d="M53.0394 114.453C52.307 114.366 51.6013 114.124 50.9685 113.745C50.3356 113.365 49.79 112.856 49.3672 112.25C48.1587 110.562 48.4596 108.753 48.8486 106.369C49.2376 103.984 49.5384 102.175 51.2293 100.965C51.8238 100.527 52.5043 100.221 53.2259 100.066C53.9474 99.9106 54.6935 99.9108 55.4149 100.066C58.0913 100.508 59.9896 102.352 59.9896 105.558L56.4575 104.976C56.3693 104.145 56.0529 103.355 54.9015 103.163C54.6449 103.108 54.3793 103.113 54.1249 103.177C53.8705 103.241 53.6341 103.362 53.4336 103.532C53.0446 103.9 52.7438 104.358 52.3185 106.94C51.8932 109.522 52.028 110.058 52.277 110.53C52.4119 110.756 52.5966 110.947 52.817 111.089C53.0373 111.231 53.2873 111.321 53.5477 111.351C54.6992 111.544 55.2542 110.899 55.6224 110.141L59.1546 110.728C58.1069 113.762 55.7158 114.895 53.0394 114.453Z" fill="white"/>
<path d="M69.9222 114.838L69.5072 109.174L65.778 109.444L66.1929 115.113L62.6815 115.373L61.6442 101.064L65.1556 100.809L65.5601 106.311L69.2894 106.036L68.8745 100.544L72.3859 100.284L73.4232 114.594L69.9222 114.838Z" fill="white"/>
<path d="M86.4989 109.413C85.7808 110.708 84.5995 111.681 83.1932 112.137C81.7869 112.593 80.2602 112.498 78.9211 111.871C77.0747 110.931 76.5093 109.185 75.7624 106.883C75.0155 104.581 74.4554 102.841 75.3994 100.986C76.1175 99.6914 77.2989 98.7181 78.7052 98.262C80.1115 97.8059 81.6381 97.901 82.9772 98.528C84.8236 99.4737 85.389 101.214 86.1359 103.516C86.8828 105.818 87.4429 107.558 86.4989 109.413ZM81.2033 101.412C80.9735 101.279 80.7187 101.197 80.4552 101.169C80.1916 101.142 79.9253 101.17 79.6732 101.251C79.4211 101.333 79.1888 101.467 78.9914 101.644C78.794 101.821 78.6358 102.037 78.5269 102.279C78.3506 102.799 78.3091 103.319 79.1131 105.797C79.917 108.275 80.2541 108.665 80.6691 108.972C80.8976 109.118 81.1568 109.211 81.4266 109.241C81.6963 109.272 81.9695 109.24 82.2251 109.148C82.4818 109.074 82.718 108.941 82.9158 108.761C83.1136 108.581 83.2676 108.358 83.3662 108.109C83.5425 107.59 83.5944 107.106 82.7853 104.612C81.9761 102.118 81.639 101.713 81.2033 101.412Z" fill="white"/>
<path d="M100.965 103.038L97.2251 97.2758L97.4533 101.36L95.5653 102.591L91.9346 100.731L95.6794 106.488L92.7282 108.411L84.917 96.3873L87.8164 94.5012L93.9626 98.0396L93.2157 90.9785L96.1151 89.0872L103.932 101.11L100.965 103.038Z" fill="white"/>
<path d="M116.691 86.5878L113.34 91.4719L101.54 83.3404L107.08 75.2712L109.673 77.0534L106.131 82.2181L107.754 83.3352L109.108 81.3608C110.809 78.8824 113.413 78.5031 115.617 80.0203C117.822 81.5374 118.402 84.099 116.691 86.5878ZM111.608 83.2833L110.332 85.1278L112.718 86.7697L113.983 84.9303C114.182 84.6125 114.25 84.2301 114.174 83.863C114.098 83.496 113.883 83.1725 113.575 82.96C113.267 82.7476 112.888 82.6626 112.519 82.7228C112.149 82.7831 111.818 82.9838 111.592 83.2833H111.608Z" fill="white"/>
<path d="M121.281 72.0343C122.272 73.0007 123.06 74.4244 122.401 76.1338L121.701 77.9576L118.776 76.8353L119.222 75.6662C119.363 75.3185 119.374 74.9317 119.253 74.5766C119.132 74.2216 118.887 73.9222 118.563 73.7333L118.496 73.6814L107.739 74.3984L109.066 70.938L115.56 70.7405L110.778 66.4643L112.07 63.0974L121.281 72.0343Z" fill="white"/>
<path d="M127.111 58.2341L116.037 56.6441L115.685 59.1174L119.388 59.6369C125.322 60.4943 126.546 62.1725 126.131 65.2485L125.939 66.5838L122.827 66.137L122.889 65.7213C123.065 64.4847 122.531 63.5286 118.926 63.009L112.111 62.0322L113.449 52.6797L127.635 54.7165L127.111 58.2341Z" fill="white"/>
<path d="M127.049 43.1764L127.65 48.9282L113.413 50.4194L113.045 46.9174L118.128 46.3978L117.889 44.1532C117.593 41.3111 119.31 39.186 121.971 38.9054C124.632 38.6248 126.753 40.3551 127.049 43.1764ZM121.058 44.0701L121.266 46.0549L124.165 45.7484L123.957 43.7635C123.945 43.5657 123.893 43.3724 123.804 43.1953C123.715 43.0183 123.592 42.8611 123.44 42.7333C123.289 42.6056 123.113 42.5099 122.924 42.4521C122.735 42.3943 122.536 42.3756 122.339 42.397C122.143 42.4172 121.953 42.4772 121.781 42.5734C121.609 42.6697 121.458 42.8002 121.339 42.9568C121.219 43.1135 121.132 43.293 121.084 43.4845C121.035 43.6759 121.027 43.8752 121.058 44.0701Z" fill="white"/>
<path d="M121.255 26.3938C122.561 27.0855 123.558 28.2468 124.045 29.6443C124.532 31.0418 124.473 32.5721 123.88 33.9278C122.977 35.8035 121.25 36.4062 118.968 37.2012C116.686 37.9961 114.964 38.6041 113.091 37.7208C111.784 37.03 110.787 35.8688 110.3 34.4709C109.813 33.0731 109.872 31.5423 110.467 30.1868C111.369 28.3111 113.096 27.7083 115.379 26.9134C117.661 26.1184 119.383 25.4897 121.255 26.3938ZM113.387 31.8754C113.26 32.109 113.184 32.3666 113.162 32.6315C113.141 32.8965 113.175 33.163 113.262 33.414C113.35 33.665 113.489 33.8949 113.67 34.089C113.851 34.283 114.071 34.437 114.315 34.5409C114.834 34.7072 115.353 34.7383 117.811 33.8758C120.27 33.0133 120.648 32.6704 120.923 32.2236C121.063 31.9915 121.149 31.7305 121.173 31.4604C121.197 31.1903 121.16 30.9182 121.063 30.6648C120.982 30.4094 120.843 30.176 120.658 29.9824C120.473 29.7888 120.246 29.6401 119.995 29.5477C119.476 29.3814 118.989 29.3398 116.515 30.2076C114.04 31.0753 113.677 31.439 113.387 31.8754Z" fill="white"/>
<path d="M116.162 14.3186L111.406 17.4361L113.444 20.5536L118.195 17.4361L120.114 20.3874L108.112 28.1812L106.183 25.2767L110.804 22.2683L108.766 19.1508L104.149 22.1592L102.23 19.2027L114.232 11.4089L116.162 14.3186Z" fill="white"/>
<path d="M111.011 7.5901L101.115 17.9818L94.0768 11.2272L96.2448 8.95661L100.737 13.2536L102.391 11.5182L98.5529 7.8447L100.721 5.57411L104.559 9.24758L106.297 7.42383L101.805 3.12166L103.973 0.851074L111.011 7.5901Z" fill="white"/>
</svg>
