<svg width="742" height="357" viewBox="0 0 742 357" fill="none" xmlns="http://www.w3.org/2000/svg">
<g filter="url(#filter0_d_8_181)">
<path d="M172.559 176.43C162.119 176.73 153.889 174.3 147.859 169.2C141.853 164.128 137.958 156.995 136.939 149.2C136.054 144.093 136.142 138.864 137.199 133.79C138.306 128.351 140.8 123.29 144.439 119.1C146.219 116.952 148.413 115.184 150.89 113.903C153.368 112.621 156.078 111.851 158.859 111.64C163.039 111.153 167.216 112.82 171.389 116.64C175.563 120.46 177.426 124.247 176.979 128C174.028 130.96 171.883 134.626 170.749 138.65C169.859 142.27 170.009 145.17 171.229 147.35C171.75 148.373 172.55 149.228 173.535 149.817C174.52 150.406 175.652 150.705 176.799 150.68C182.919 150.727 191.253 140.907 201.799 121.22C212.346 101.533 224.263 73.1267 237.549 36C237.549 36 244.549 14.48 248.649 9.39C252.109 5.05 255.259 4.72 265.399 5.14C275.539 5.56 280.979 7.68 281.569 11.61C270.943 63.3233 266.299 98.9167 267.639 118.39C267.979 122.82 269.059 124.91 270.869 124.63C272.679 124.35 274.809 122.09 277.249 117.8C283.703 106.1 291.606 89.2167 300.959 67.15C310.313 45.0833 318.213 24.29 324.659 4.77C327.639 1.59 333.613 0 342.579 0C351.546 0 357.679 1.97333 360.979 5.92C360.659 7.84667 359.733 13.2367 358.199 22.09C356.666 30.9433 355.623 37.0567 355.069 40.43C354.523 43.8033 353.549 49.75 352.149 58.27C350.749 66.79 349.749 73.3 349.149 77.8C348.483 82.2933 347.646 88.39 346.639 96.09C345.633 103.79 344.933 110.24 344.539 115.44C344.166 120.627 343.753 126.377 343.299 132.69C342.846 139.003 342.586 144.773 342.519 150C342.519 155.253 342.676 160.253 342.989 165C341.949 168.887 338.316 172.033 332.089 174.44C326.21 176.783 319.888 177.807 313.569 177.44C307.463 177.053 303.946 175.297 303.019 172.17C302.959 160.33 303.859 148.505 305.709 136.81C307.589 124.81 310.566 109.477 314.639 90.81H314.009C304.623 119.417 295.313 139.18 286.079 150.1C279.699 157.507 272.743 161.677 265.209 162.61C257.676 163.543 251.676 161.04 247.209 155.1C243.669 150.38 241.906 141.577 241.919 128.69C241.933 115.803 242.996 104.607 245.109 95.1H244.479C241.853 102.247 239.739 107.893 238.139 112.04C236.539 116.187 234.293 121.443 231.399 127.81C229.072 133.096 226.4 138.224 223.399 143.16C220.575 147.576 217.472 151.808 214.109 155.83C210.84 159.949 206.982 163.565 202.659 166.56C198.428 169.324 193.87 171.551 189.089 173.19C183.773 175.093 178.201 176.185 172.559 176.43Z" fill="white"/>
<path d="M376.98 163.86C365.98 164.36 358.703 160.563 355.15 152.47C351.596 144.377 352.713 133.153 358.5 118.8C359.19 117.69 360.29 117.4 361.8 117.92C363.446 118.539 364.918 119.548 366.09 120.86C367.44 122.31 367.97 123.49 367.68 124.42C365.82 129.867 365.346 134.087 366.26 137.08C367.18 140.08 369.09 141.4 372.01 141.08C377.836 140.58 382.346 135.057 385.54 124.51C376.206 117.45 373.236 106.963 376.63 93.05C378.69 83.7983 383.878 75.5405 391.32 69.67C398.398 63.969 406.964 60.4186 416 59.44C425.379 58.5008 434.85 59.5608 443.79 62.55C452.819 65.3188 461.036 70.2478 467.73 76.91C469.79 79.09 468.96 83.06 465.24 88.82C461.52 94.58 458.416 96.9133 455.93 95.82C450.916 91.6163 445.031 88.5797 438.7 86.93C432.412 85.0874 425.846 84.3763 419.31 84.83C411.976 85.5567 407.493 90.08 405.86 98.4C405.37 101.78 405.86 104.46 407.34 106.4C407.944 107.328 408.786 108.077 409.778 108.569C410.77 109.062 411.875 109.279 412.98 109.2C417.746 108.933 421.503 104.377 424.25 95.53C426.543 93.73 429.606 92.91 433.44 93.07C437.347 93.2657 441.137 94.4716 444.44 96.57C447.96 98.7367 449.55 101.2 449.21 103.96C443.01 123.813 442.343 134.057 447.21 134.69C451.83 135.357 456.613 133.357 461.56 128.69C466.56 124.01 472.76 114.47 475.84 108.21C476.52 107.21 475.37 111.14 476.84 111.67C478.472 112.283 479.94 113.265 481.13 114.54C482.49 115.92 483.02 116.99 482.74 117.77C467.86 145.643 450.753 159.977 431.42 160.77C420.033 161.25 415.086 150.487 416.58 128.48L413.17 129.81C408.503 142.27 403.65 150.97 398.61 155.91C393.57 160.85 386.36 163.5 376.98 163.86Z" fill="white"/>
<path d="M531.98 51.66C538.326 51.7134 543.616 53.0467 547.85 55.66C552.083 58.2734 554.946 61.41 556.44 65.07C557.981 68.9239 558.945 72.9844 559.3 77.12C559.765 81.1824 559.251 85.2972 557.8 89.12C553.8 94.5134 547.9 97.55 540.1 98.23C532.3 98.91 527.523 96.9833 525.77 92.45C525.92 91.83 526.28 90.69 526.85 89.05C527.42 87.41 527.85 85.92 528.25 84.59C528.65 83.26 528.95 81.86 529.25 80.38C529.565 79.2422 529.526 78.0355 529.14 76.92C528.961 76.5104 528.653 76.1705 528.263 75.9521C527.873 75.7337 527.422 75.6487 526.98 75.71C524.586 75.8233 522.07 78.44 519.43 83.56C516.79 88.68 514.816 95.9833 513.51 105.47C512.036 115.87 513.593 123.323 518.18 127.83C522.766 132.337 529.176 133.88 537.41 132.46C543.41 131.447 549.64 128.47 556.1 123.53C562.622 118.546 567.94 112.158 571.66 104.84C572.49 103.42 574.33 103.84 577.19 106.05C580.05 108.26 581.19 109.95 580.63 111.05C571.75 127.05 562.536 138.05 552.99 144.05C543.221 150.104 532.061 153.547 520.58 154.05C506.94 154.803 495.746 151.583 487 144.39C478.253 137.197 474.266 126 475.04 110.8C475.86 94.56 481.613 80.5767 492.3 68.85C502.986 57.1233 516.213 51.3934 531.98 51.66Z" fill="white"/>
<path d="M630.45 44.18C638.91 44.36 646.09 46.6933 651.99 51.18C657.782 55.5405 662.093 61.5766 664.34 68.47C666.673 75.49 667.226 83.51 666 92.53C664.647 101.936 661.554 111.007 656.88 119.28C643.19 142.22 622.17 146.44 607.35 146.77C594.24 147.05 584.24 142.77 577.35 133.77C570.46 124.77 568.98 111.49 572.98 93.63C576.853 76.8633 584.023 64.3633 594.49 56.13C604.673 47.9949 617.423 43.7578 630.45 44.18ZM625.23 69.24C622.85 69.24 620.156 71.1733 617.15 75.04C614.143 78.9067 611.753 84.3133 609.98 91.26C607.957 97.896 607.237 104.861 607.86 111.77C608.473 118.783 610.5 122.25 613.94 122.17C615.209 122.073 616.444 121.709 617.564 121.102C618.684 120.496 619.664 119.66 620.44 118.65C623.91 114.05 625.27 109.28 627.35 102.28C629.415 94.8107 630.425 87.0892 630.35 79.34C630.103 72.7067 628.396 69.34 625.23 69.24Z" fill="white"/>
<path d="M207.139 215.92C215.599 215.86 222.786 217.947 228.699 222.18C234.495 226.275 238.83 232.116 241.069 238.85C243.396 245.723 243.953 253.68 242.739 262.72C241.358 272.219 238.261 281.388 233.599 289.78C219.899 313.26 198.869 318.14 184.039 318.72C170.926 319.24 160.926 315.027 154.039 306.08C147.153 297.133 145.699 283.773 149.679 266C153.559 249.28 160.729 236.79 171.189 228.53C181.381 220.344 194.068 215.894 207.139 215.92ZM201.919 241C199.539 241.1 196.843 243.1 193.829 247C190.816 250.9 188.426 256.333 186.659 263.3C184.639 269.923 183.919 276.874 184.539 283.77C185.159 290.77 187.179 294.15 190.629 294.01C191.906 293.883 193.143 293.494 194.262 292.866C195.38 292.237 196.357 291.384 197.129 290.36C200.609 285.68 201.959 280.9 204.049 273.86C206.118 266.391 207.128 258.669 207.049 250.92C206.809 244.347 205.099 241.04 201.919 241Z" fill="white"/>
<path d="M16.1996 321.44C29.8096 336.17 48.3696 344.44 71.3996 345.74C91.8996 346.85 110.87 342.66 127.78 333.43C144.47 324.31 161.63 305.8 178.78 278.43C177.632 276.546 176.191 274.858 174.51 273.43C173.35 272.247 172.026 271.237 170.58 270.43C162.858 283.537 152.367 294.8 139.84 303.43C127.18 312.03 115.02 316.84 103.69 317.72C87.6896 319 75.4296 314.35 67.1696 304.02C58.9096 293.69 56.8896 278.13 61.1696 257.82C64.8496 240.08 69.5696 226.32 75.1696 216.91C81.5096 206.27 87.4796 201.28 93.4296 201.64C95.0166 201.679 96.5521 202.211 97.8227 203.163C99.0933 204.114 100.036 205.438 100.52 206.95C101.37 209.47 101.3 212.46 100.3 216.11C99.5396 218.89 98.7196 221.56 97.8696 224.04C97.0196 226.52 95.9696 229.23 94.6696 232.35C93.7996 234.43 93.2496 235.82 92.9096 236.73C94.0796 239.93 97.7796 245.73 113.24 245.73C125.7 245.73 135.13 241.79 142.03 233.67C144.618 227.536 145.847 220.914 145.63 214.26C145.574 206.949 144.497 199.682 142.43 192.67C140.56 186.53 136.36 180.89 129.95 175.89C123.54 170.89 114.88 167.71 104.46 166.57C102.38 166.32 100.31 166.14 98.2796 166.01C74.2796 164.57 53.7596 172.1 35.6696 189.09C16.1296 207.38 4.45961 231 0.979612 259.7C-2.34039 286.08 2.78961 306.92 16.1996 321.44Z" fill="white"/>
<path d="M686.499 113.81C682.499 113.87 680.003 111.903 679.009 107.91C678.041 103.748 678.341 99.3907 679.869 95.4C681.429 91.06 683.429 88.3767 685.869 87.35C698.109 84.11 710.353 80.97 722.599 77.93C725.099 78.15 726.969 79.7233 728.209 82.65C729.527 85.8302 730.13 89.2612 729.974 92.7002C729.819 96.1391 728.909 99.5018 727.309 102.55C725.91 105.59 723.408 107.985 720.309 109.25C709.029 110.683 697.759 112.203 686.499 113.81Z" fill="white"/>
<path d="M480.779 250.6C481.729 249.31 483.579 249.72 486.299 251.83C489.019 253.94 490.169 255.56 489.749 256.66C475.549 283.707 459.099 298.21 440.399 300.17C428.986 301.43 421.473 299.07 417.859 293.09C414.246 287.11 413.639 278.7 416.039 267.86C416.229 267.162 416.379 266.454 416.489 265.74C416.591 265.024 416.742 264.316 416.939 263.62L403.429 264.41C402.096 270.85 399.493 281.927 395.619 297.64C395.173 299.84 391.619 301.68 384.959 303.16C378.676 304.619 372.191 305.004 365.779 304.3C359.649 303.59 356.949 301.73 357.689 298.75C360.623 287.73 364.623 271.493 369.689 250.04C374.756 228.587 378.456 213.45 380.789 204.63C385.356 201.423 392.166 200.167 401.219 200.86C410.273 201.553 415.526 203.727 416.979 207.38C416.239 210.213 413.713 220.973 409.399 239.66L422.709 238.88C426.263 224.433 429.426 212.1 432.199 201.88C435.193 198.773 441.413 197.497 450.859 198.05C460.306 198.603 466.163 201 468.429 205.24C467.096 210.887 465.289 218.11 463.009 226.91C460.729 235.71 458.919 242.937 457.579 248.59C456.246 254.243 455.339 258.63 454.859 261.75C454.079 266.13 453.899 269.24 454.319 271.08C454.381 271.49 454.524 271.883 454.74 272.236C454.957 272.589 455.241 272.896 455.578 273.137C455.914 273.378 456.296 273.55 456.7 273.642C457.104 273.733 457.522 273.743 457.929 273.67C464.829 273.277 472.446 265.587 480.779 250.6Z" fill="white"/>
<path d="M548.33 265C554.016 251.2 555.65 239.3 553.23 229.3C550.81 219.3 545.513 214.277 537.34 214.23C530.786 214.23 525.163 217.01 520.47 222.57C521.136 220.517 523.67 212.87 528.07 199.63C528.15 195.917 523.416 193.78 513.87 193.22C504.323 192.66 497.866 193.953 494.5 197.1C494.29 198.04 494.06 198.95 493.8 199.81C493.54 200.67 493.17 201.74 492.69 203.01C488.143 218.43 484.633 231.193 482.16 241.3C479.686 251.407 478.396 259.933 478.29 266.88C478.21 286.447 487.753 295.64 506.92 294.46C513.139 294.209 519.248 292.733 524.897 290.118C530.546 287.503 535.624 283.8 539.84 279.22C545.49 271.56 546.11 269 548.33 265ZM525.91 249C524.637 249.29 523.436 249.836 522.381 250.605C521.325 251.373 520.437 252.348 519.77 253.47C518.398 255.582 517.64 258.033 517.58 260.55C517.462 262.563 517.89 264.57 518.82 266.36C516.1 269.17 513.7 270.65 511.59 270.79C509.48 270.93 508.13 269.19 507.52 265.53C506.91 261.87 507.63 256.9 509.67 250.59C513.53 241.703 517.513 237.113 521.62 236.82C523.23 236.7 524.62 237.73 525.7 239.88C526.78 242.03 526.87 245 525.91 249Z" fill="white"/>
<path d="M627.659 240.28C625.269 238.22 623.569 237.84 622.589 239.14C613.743 254.227 606.096 261.997 599.649 262.45C599.268 262.524 598.875 262.514 598.497 262.421C598.12 262.328 597.767 262.153 597.464 261.909C597.162 261.665 596.916 261.358 596.744 261.01C596.572 260.661 596.478 260.279 596.469 259.89C596.209 258.07 596.593 254.963 597.62 250.57C598.286 247.45 599.479 242.98 601.199 237.16C602.919 231.34 605.179 223.953 607.979 215C610.746 206.027 612.956 198.71 614.609 193.05C612.776 188.87 607.443 186.537 598.609 186.05C589.776 185.563 583.863 186.897 580.87 190.05C572.023 218.717 566.69 236.337 564.87 242.91L564.529 244.01C559.439 257.3 554.369 262.01 547.469 264.4L539.469 277.8C547.699 277.16 555.919 271.63 558.839 268.75C557.669 284.24 565.159 290.38 581.519 289.11C599.929 287.69 614.35 272.16 630.62 245.04C630.98 243.94 630.059 242.35 627.659 240.28Z" fill="white"/>
<path d="M697.26 262.91C700.81 257.62 697.959 254.57 696.959 253.55C695.729 252.29 693.539 253.95 693.539 253.95L693.469 254.01C692.989 254.33 692.529 254.67 692.039 255.01C683.16 260.523 674.969 262.483 667.469 260.89C659.969 259.297 655.609 254.533 654.389 246.6C664.589 246.94 673.443 244.883 680.949 240.43C688.525 235.991 694.482 229.246 697.949 221.18C699.976 216.794 701.001 212.011 700.949 207.18C700.977 202.591 700.258 198.028 698.82 193.67C697.244 189.429 694.214 185.886 690.269 183.67C685.969 181.003 680.656 179.807 674.329 180.08C659.443 180.607 646.673 186.877 636.019 198.89C625.481 210.662 619.254 225.665 618.36 241.44C617.46 254.693 620.426 265.273 627.26 273.18C634.093 281.087 644.676 284.487 659.01 283.38C678.08 281.82 689.71 272.6 696.57 263.88C696.84 263.51 697.05 263.21 697.26 262.91ZM660.67 211.91C663.536 206.863 666.343 204.217 669.089 203.97C671.089 203.79 671.759 206.05 671.089 210.75C670.469 215.192 668.627 219.374 665.769 222.83C663.157 226.284 659.386 228.681 655.149 229.58C655.773 223.367 657.651 217.346 660.67 211.88V211.91Z" fill="white"/>
<path d="M342.809 205.94C333.356 205.433 327.139 206.7 324.159 209.74C321.379 219.74 318.223 231.803 314.689 245.93C314.689 245.93 313.189 252.28 311.619 258.93C310.619 263.06 308.709 271.29 307.279 277.34C305.389 283.78 289.999 340.66 338.609 333.89C345.409 332.89 344.399 330.31 343.799 329.42C337.539 321.96 337.959 308.8 343.699 281.68C343.919 280.68 348.489 260.54 351.139 249.68C351.339 248.92 351.529 247.97 351.719 246.99C352.319 244.49 352.939 241.94 353.589 239.26C354.036 237.567 354.499 235.81 354.979 233.99C357.246 225.377 359.049 218.307 360.389 212.78C358.116 208.727 352.256 206.447 342.809 205.94Z" fill="white"/>
<path d="M321.72 239.57C319.24 237.523 317.573 237.127 316.72 238.38C309.113 253.047 302.176 260.553 295.91 260.9C295.526 260.959 295.134 260.939 294.759 260.842C294.383 260.745 294.031 260.572 293.724 260.334C293.417 260.097 293.162 259.799 292.974 259.46C292.786 259.12 292.668 258.746 292.63 258.36C292.25 256.56 292.42 253.523 293.14 249.25C293.58 246.197 294.413 241.913 295.64 236.4C296.19 233.9 296.85 231.04 297.58 227.9L298.12 225.66C299.12 221.553 300.02 217.8 300.82 214.4C300.94 213.89 301.05 213.4 301.16 212.9C299.086 208.78 293.753 206.427 285.16 205.84C276.566 205.253 270.9 206.47 268.16 209.49C267.44 212.28 266.7 215.25 265.93 218.37C265.27 221.09 257.93 254.75 257.84 255C255.633 265.56 256.17 273.783 259.45 279.67C262.73 285.557 269.563 287.917 279.95 286.75C296.976 284.917 311.976 270.757 324.95 244.27C325.23 243.19 324.19 241.63 321.72 239.57Z" fill="white"/>
</g>
<defs>
<filter id="filter0_d_8_181" x="0" y="0" width="741.998" height="356.915" filterUnits="userSpaceOnUse" color-interpolation-filters="sRGB">
<feFlood flood-opacity="0" result="BackgroundImageFix"/>
<feColorMatrix in="SourceAlpha" type="matrix" values="0 0 0 0 0 0 0 0 0 0 0 0 0 0 0 0 0 0 127 0" result="hardAlpha"/>
<feOffset dx="7" dy="6"/>
<feGaussianBlur stdDeviation="2.5"/>
<feComposite in2="hardAlpha" operator="out"/>
<feColorMatrix type="matrix" values="0 0 0 0 0 0 0 0 0 0 0 0 0 0 0 0 0 0 0.43 0"/>
<feBlend mode="multiply" in2="BackgroundImageFix" result="effect1_dropShadow_8_181"/>
<feBlend mode="normal" in="SourceGraphic" in2="effect1_dropShadow_8_181" result="shape"/>
</filter>
</defs>
</svg>
