<svg width="320" height="481" viewBox="0 0 320 481" fill="none" xmlns="http://www.w3.org/2000/svg">
<path fill-rule="evenodd" clip-rule="evenodd" d="M-404.019 29.8217C-439.396 13.9795 -470.614 0.000307541 -505 0V465.809C-493.384 465.062 -476.628 468.178 -457.467 471.741C-423.116 478.128 -381.035 485.953 -346.973 475.541C-324.191 468.577 -300.227 452.992 -275.852 437.14C-243.456 416.072 -210.333 394.53 -178.288 392.125C-136.758 389.007 -104.162 397.04 -70.5773 405.317C-34.2702 414.265 3.19257 423.498 54.3491 419.235C84.218 416.746 113.751 405.512 143.372 394.246C177.171 381.39 211.085 368.49 245.742 368.49C273.828 368.49 293.042 376.285 312.612 384.225C332.92 392.464 353.612 400.859 385 400.859V91.2944C374.647 90.675 372.384 89.8023 369.691 88.7639C369.136 88.55 368.563 88.329 367.898 88.1018C367.883 88.0848 367.868 88.0677 367.853 88.0506C356.963 82.7212 362.005 69.9009 368.853 64.8836C370.398 63.7442 372.01 62.6942 373.622 61.6441C374.343 61.1746 375.064 60.705 375.779 60.2275C376.007 60.0742 376.237 59.9231 376.467 59.772C377.103 59.3546 377.739 58.9368 378.34 58.4716C381.831 55.7763 382.947 52.364 381.835 48.0915C380.993 44.8484 378.992 42.6582 375.844 41.6066C373.675 40.8864 371.444 41.2385 369.255 41.6902C365.023 42.5595 362.395 45.3202 360.622 49.0657C360.168 50.0265 359.714 50.9839 359.24 51.9425C358.007 54.5105 355.963 55.9786 353.123 56.1649C348.588 56.4938 344.034 55.8788 339.749 54.3587C338.204 53.7937 336.885 52.7427 335.99 51.3644C332.31 46.0056 332.116 40.3836 334.776 34.6121C335.332 33.4043 335.938 32.2192 336.544 31.0338C337.299 29.5586 338.054 28.083 338.712 26.5626C340.196 23.1947 340.394 19.4012 339.268 15.8967C338.108 12.1232 335.319 9.93169 331.391 9.63773C323.568 9.06007 316.727 15.4771 316.89 23.2816C316.931 25.5331 317.42 27.7543 318.328 29.8161C318.54 30.3005 318.757 30.7839 318.974 31.2675C319.774 33.0525 320.575 34.8408 321.168 36.6946C322.599 41.0673 322.467 45.7986 320.794 50.0835C320.618 50.5559 320.385 51.0051 320.1 51.421C319.369 52.4657 318.258 52.4096 317.724 51.2609C317.348 50.3939 317.041 49.4991 316.806 48.5845C316.561 47.7352 316.329 46.8821 316.097 46.0288C315.67 44.4571 315.243 42.8848 314.736 41.3352C314.071 39.274 313.027 37.3987 310.918 36.4381C306.826 34.5793 300.916 36.3838 300.21 42.1972C300.073 43.16 300.178 44.1417 300.514 45.0546C300.85 45.9675 301.408 46.7833 302.137 47.4292C303.102 48.3045 304.145 49.0897 305.191 49.8767C305.545 50.1428 305.899 50.4091 306.25 50.6792C306.634 50.9694 307.034 51.2415 307.433 51.5136C307.941 51.8589 308.448 52.2043 308.924 52.5872C311.587 54.7303 311.703 57.5416 309.197 59.8814C306.691 62.2213 303.647 62.64 300.408 61.8821C296.006 60.8512 292.333 58.3945 288.715 55.8485C283.735 52.2709 278.57 48.9555 273.243 45.9158C268.491 43.2654 263.617 43.3344 258.623 44.8644C254.545 46.1199 252.511 49.2459 251.674 53.2302C251.23 55.0539 251.244 56.9593 251.717 58.7764C252.919 62.9667 255.971 65.0799 259.992 66.0958C263.694 67.0298 267.361 66.5016 271.048 65.9707L271.458 65.9117L271.677 65.8803C274.791 65.4336 277.925 64.9839 281.061 64.8809C284.649 64.7658 287.931 66.0253 290.851 68.1141C292.002 68.9288 292.832 70.1174 293.2 71.4759C293.917 73.9003 293.978 76.4708 293.376 78.9256C292.461 82.5069 290.029 84.3398 286.317 84.2552C285.337 84.2269 284.358 84.1031 283.378 83.9792C282.914 83.9204 282.449 83.8617 281.984 83.8131C281.614 83.7932 281.243 83.7656 280.873 83.738C279.812 83.6588 278.754 83.5799 277.7 83.6848C277.475 83.6719 277.249 83.6597 277.023 83.6479C262.804 85.205 249.98 87.8336 237.361 90.4202C208.087 96.4206 179.916 102.195 137.997 93.8432C118.836 90.0257 103.326 83.8124 86.5831 77.1046C50.4806 62.6411 8.63989 45.8787 -87.9211 45.8787C-144.756 45.8787 -186.744 52.1913 -221.633 57.4367C-266.398 64.1669 -299.478 69.1403 -337.242 56.7695C-361.822 48.7172 -383.613 38.9595 -404.019 29.8217Z" fill="white"/>
</svg>
